<svg id="Layer_1" data-name="Layer 1" xmlns="http://www.w3.org/2000/svg" viewBox="0 0 50 50"><defs><style>.cls-1{fill:#00a79d;}.cls-2{fill:#fff;}.cls-3{fill:#518d51;}.cls-4{fill:#e4e4e4;}.cls-5{fill:#d02027;}.cls-6{fill:#589f58;}.cls-7{fill:#f3f4f5;}.cls-8{fill:#db2727;}</style></defs><circle class="cls-1" cx="25" cy="25" r="25"/><circle class="cls-2" cx="25" cy="25" r="25"/><path class="cls-3" d="M48.57,16.66H33.17a69.15,69.15,0,0,1,0,16.58H48.6a25,25,0,0,0,0-16.58Z"/><path class="cls-4" d="M33.17,16.66h15.4v0A25,25,0,0,0,27.24.1C31.07,2.2,32.19,8.85,33.17,16.66Z"/><path class="cls-5" d="M27.25,49.9A25,25,0,0,0,48.58,33.31a.25.25,0,0,0,0-.07H33.18C32.21,41.1,31.09,47.79,27.25,49.9Z"/><path class="cls-6" d="M0,25a25,25,0,0,0,1.4,8.24H34.47a69.15,69.15,0,0,0,0-16.58h-33A25.06,25.06,0,0,0,0,25Z"/><path class="cls-7" d="M1.44,16.64v0h33C33.48,8.85,31.07,2.2,27.25.1,26.5,0,25.76,0,25,0A25,25,0,0,0,1.44,16.64Z"/><path class="cls-8" d="M34.47,33.24H1.4a.25.25,0,0,0,0,.07A25,25,0,0,0,25,50c.76,0,1.5,0,2.24-.1C31.09,47.79,33.5,41.1,34.47,33.24Z"/></svg>