<svg id="Layer_1" data-name="Layer 1" xmlns="http://www.w3.org/2000/svg" viewBox="0 0 50 50"><defs><style>.cls-1{fill:#e5e5e5;}.cls-2{fill:#338af3;}</style></defs><circle class="cls-1" cx="25" cy="25" r="25"/><path class="cls-2" d="M25,18.48H49.14A24.78,24.78,0,0,0,46.33,12H25Z"/><path class="cls-2" d="M9.44,44.57H40.56A25.19,25.19,0,0,0,46.33,38H3.67A25.19,25.19,0,0,0,9.44,44.57Z"/><path class="cls-2" d="M8.7,6.05a24.8,24.8,0,0,0-5,5.91h5Z"/><path class="cls-2" d="M25,25V18.48H15.22V25H8.7V18.48H.86a25.15,25.15,0,0,0,0,13H49.14A25,25,0,0,0,50,25Z"/><path class="cls-2" d="M25,0a24.88,24.88,0,0,0-9.78,2V12H25V5.43H40.56A24.9,24.9,0,0,0,25,0Z"/></svg>