<svg id="Layer_1" data-name="Layer 1" xmlns="http://www.w3.org/2000/svg" viewBox="0 0 50 50"><defs><style>.cls-1{fill:#f0f0f0;}.cls-2{fill:#0052b4;}.cls-3{fill:#d80027;}</style></defs><circle class="cls-1" cx="24.99" cy="25" r="25"/><path class="cls-2" d="M25,50A25,25,0,0,0,48.44,16.3H1.55A25,25,0,0,0,25,50Z"/><path class="cls-3" d="M25,50A25,25,0,0,0,48.44,33.7H1.55A25,25,0,0,0,25,50Z"/><path class="cls-1" d="M6.46,14.13V26.6c0,7.1,9.26,9.27,9.26,9.27S25,33.7,25,26.6V14.13Z"/><path class="cls-3" d="M8.63,14.13V26.6A5.35,5.35,0,0,0,9.18,29H22.27a5.35,5.35,0,0,0,.55-2.36V14.13Z"/><polygon class="cls-1" points="20.07 22.83 16.81 22.83 16.81 20.65 18.98 20.65 18.98 18.48 16.81 18.48 16.81 16.3 14.64 16.3 14.64 18.48 12.46 18.48 12.46 20.65 14.64 20.65 14.64 22.83 11.38 22.83 11.38 25 14.64 25 14.64 27.17 16.81 27.17 16.81 25 20.07 25 20.07 22.83"/><path class="cls-2" d="M12.15,32a15.86,15.86,0,0,0,3.57,1.62A15.7,15.7,0,0,0,19.3,32a7.85,7.85,0,0,0,3-3,3.79,3.79,0,0,0-2.2-.7,4,4,0,0,0-.86.1,3.81,3.81,0,0,0-7,0,4.12,4.12,0,0,0-.86-.1,3.79,3.79,0,0,0-2.2.7A7.71,7.71,0,0,0,12.15,32Z"/></svg>