<svg id="Layer_1" data-name="Layer 1" xmlns="http://www.w3.org/2000/svg" viewBox="0 0 50 50"><defs><style>.cls-1{fill:#f0f0f0;}.cls-2{fill:#0052b4;}.cls-3{fill:#d80027;}</style></defs><circle class="cls-1" cx="25" cy="25" r="25"/><path class="cls-2" d="M48.45,16.3H21.74V9.78H8.7V16.3H1.55a25.19,25.19,0,0,0,0,17.4L25,35.87,48.45,33.7a25.19,25.19,0,0,0,0-17.4Z"/><path class="cls-3" d="M25,50A25,25,0,0,0,48.45,33.7H1.55A25,25,0,0,0,25,50Z"/><path class="cls-1" d="M8.7,16.3v2.18c0,5,6.52,6.52,6.52,6.52s6.52-1.53,6.52-6.52V16.3l-2.17,2.18-4.35-3.26-4.35,3.26Z"/></svg>