<svg xmlns="http://www.w3.org/2000/svg" height="511pt" version="1.1" viewBox="-79 1 511 511.99994" width="511pt">
<g id="surface1">
<path d="M 88.777344 423.722656 L 88.777344 282.484375 L 177.050781 282.484375 L 177.050781 229.519531 L 88.777344 229.519531 L 88.777344 88.277344 L 177.050781 88.277344 L 177.050781 35.308594 L 141.742188 35.308594 L 141.742188 0 L 88.777344 0 L 88.777344 35.308594 L 0.5 35.308594 L 0.5 88.277344 L 35.808594 88.277344 L 35.808594 423.722656 L 0.5 423.722656 L 0.5 476.691406 L 88.777344 476.691406 L 88.777344 512 L 141.742188 512 L 141.742188 476.691406 L 177.050781 476.691406 L 177.050781 423.722656 Z M 88.777344 423.722656 " style=" stroke:none;fill-rule:nonzero;fill:rgb(100%,59.607843%,6.666667%);fill-opacity:1;" />
<path d="M 306.375 256 C 310.257812 253 313.941406 249.757812 317.410156 246.289062 C 365.675781 198.027344 365.679688 119.777344 317.417969 71.511719 C 294.238281 48.332031 262.800781 35.308594 230.019531 35.3125 L 230.019531 0 L 177.050781 0 L 177.050781 88.277344 L 230.019531 88.277344 C 269.019531 88.277344 300.640625 119.894531 300.640625 158.898438 C 300.640625 197.898438 269.019531 229.519531 230.019531 229.519531 L 177.050781 229.519531 L 177.050781 282.484375 L 230.019531 282.484375 C 269.019531 282.484375 300.640625 314.101562 300.640625 353.105469 C 300.640625 392.105469 269.019531 423.722656 230.019531 423.722656 L 177.050781 423.722656 L 177.050781 512 L 230.019531 512 L 230.019531 476.691406 C 298.246094 476.710938 353.574219 421.414062 353.597656 353.183594 C 353.609375 315.257812 336.199219 279.429688 306.375 256 Z M 306.375 256 " style=" stroke:none;fill-rule:nonzero;fill:rgb(100%,65.490196%,20%);fill-opacity:1;" />
</g>
</svg>