<svg xmlns="http://www.w3.org/2000/svg" viewBox="0 0 834 201"><title>Vector Smart Object1</title><g id="Ellipse_9_copy_2" data-name="Ellipse 9 copy 2"><g id="Ellipse_9_copy_2-2" data-name="Ellipse 9 copy 2"><path d="M431,119.3a41.7,41.7,0,0,0,22.6-44.9c-3.4-18.4-18.2-32.6-37-33.8-8.6-.6-17.1-.6-25.6-.5H372.1c-1.5,0-1.1-5.9-1.1,22.9V159h23V116c9.9,14.2,19.5,26.9,28.5,39.7,1,1.4,2.2,3.3,3.5,3.3h28l-26.5-37.8ZM414.1,99.7c-6.3.4-13.3.3-20.1.3V64c7.2,0,14.9-.5,21.7.4,9,1.1,15,9.4,14.6,18.6S422.9,99.2,414.1,99.7ZM309.4,41.9a60.5,60.5,0,0,0-20.8,0,59,59,0,1,0,35.3,111.6l-15.5-18.8A32.8,32.8,0,0,1,299,136a36,36,0,0,1-6.3-71.4,33.4,33.4,0,0,1,12.6,0,36.1,36.1,0,0,1,26.1,51.1L347.2,134a59.9,59.9,0,0,0,9.9-23.6A59.1,59.1,0,0,0,309.4,41.9Z" style="fill:#0645a3"/></g></g><g id="Rounded_Rectangle_10" data-name="Rounded Rectangle 10"><g id="Rounded_Rectangle_10-2" data-name="Rounded Rectangle 10"><path d="M347,143.7,310.7,99.9c-3.9-4.3-10.2-5.2-13.9-2s-3.7,9.1.2,13.4l36.3,43.8c3.9,4.3,10.1,5.2,13.9,2S350.9,148,347,143.7Z" style="fill:#e28706"/></g></g><g id="Code"><g id="Code-2" data-name="Code"><path d="M539.7,46.6a56.5,56.5,0,0,0-23.6-4.7,59,59,0,0,0-41.7,16.9,56.5,56.5,0,0,0-12.3,18.5,61,61,0,0,0,0,46,56.3,56.3,0,0,0,30.8,30.8,59.2,59.2,0,0,0,23.2,4.5,57,57,0,0,0,10.2-.8l6.2-22.8a35.9,35.9,0,0,1-16.3,3.6,39.5,39.5,0,0,1-14.6-2.7,35.8,35.8,0,0,1-12-7.7,38.1,38.1,0,0,1-8-12.1,40.1,40.1,0,0,1-3-15.8,40.6,40.6,0,0,1,3-15.9,39.3,39.3,0,0,1,8-12.1,35.8,35.8,0,0,1,12-7.7,39.5,39.5,0,0,1,14.6-2.7,32.1,32.1,0,0,1,15.4,3.4,42,42,0,0,1,11.5,9.2l14.8-14.3A55.4,55.4,0,0,0,539.7,46.6ZM717.5,78l1.2,10.9h-1.2a23.6,23.6,0,0,0-8.8-8.3c-3.9-2.3-8.8-3.4-14.6-3.4a33.6,33.6,0,0,0-14,3,37.9,37.9,0,0,0-19.7,21.3,46.3,46.3,0,0,0,0,32.8,38.7,38.7,0,0,0,19.7,21.3,33.6,33.6,0,0,0,14,3c5.8,0,10.7-1.1,14.6-3.4a23.6,23.6,0,0,0,8.8-8.3h1.2v9.2h19.2V44.4H717.5Zm-.5,49.1a19.8,19.8,0,0,1-11,11.2,21.9,21.9,0,0,1-7.7,1.4,19.9,19.9,0,0,1-7.7-1.5,20.7,20.7,0,0,1-6.5-4.4,19.7,19.7,0,0,1-4.5-6.9,24.7,24.7,0,0,1,0-18,19.7,19.7,0,0,1,4.5-6.9,20.7,20.7,0,0,1,6.5-4.4,19.9,19.9,0,0,1,7.7-1.5,21.9,21.9,0,0,1,7.7,1.4,19.8,19.8,0,0,1,11,11.2,22.5,22.5,0,0,1,1.7,9.2A22.5,22.5,0,0,1,717,127.1Zm108.7-25.7a36,36,0,0,0-7.3-12.8,35,35,0,0,0-12-8.4,42.1,42.1,0,0,0-16.4-3,38.8,38.8,0,0,0-28.5,12.1,39.7,39.7,0,0,0-8.3,12.9,41.8,41.8,0,0,0-3,15.7,43,43,0,0,0,3.1,16.3,38.6,38.6,0,0,0,8.5,12.9,39.7,39.7,0,0,0,12.9,8.5,42.3,42.3,0,0,0,16.1,3c8.6,0,15.9-1.9,21.9-5.8A41.5,41.5,0,0,0,827,137.7l-17-8.4a23.3,23.3,0,0,1-7.3,8c-3,2.2-6.9,3.2-11.6,3.2a23.7,23.7,0,0,1-7-1,19,19,0,0,1-6.3-3.3,17.7,17.7,0,0,1-4.9-5.6,20.9,20.9,0,0,1-2.5-8h57.5a8.8,8.8,0,0,1,.2-1.7,11.5,11.5,0,0,1,.1-1.8v-1.8A48.2,48.2,0,0,0,825.7,101.4Zm-54.2,6.7a19.1,19.1,0,0,1,7-10.5A18.6,18.6,0,0,1,790,93.9a20.2,20.2,0,0,1,8.1,1.4,16.9,16.9,0,0,1,5.6,3.6,16.1,16.1,0,0,1,3.4,4.6,12.9,12.9,0,0,1,1.3,4.6ZM637.2,88.6a40.7,40.7,0,0,0-12.8-8.4,42.6,42.6,0,0,0-16.3-3,43.4,43.4,0,0,0-16.3,3A41.8,41.8,0,0,0,579,88.6a37.9,37.9,0,0,0-8.4,12.9,46.3,46.3,0,0,0,0,32.8,36.6,36.6,0,0,0,8.4,12.8,40.3,40.3,0,0,0,12.8,8.5,43.4,43.4,0,0,0,16.3,3,42.6,42.6,0,0,0,16.3-3,39.2,39.2,0,0,0,12.8-8.5,36.6,36.6,0,0,0,8.4-12.8,44.9,44.9,0,0,0,0-32.8A37.9,37.9,0,0,0,637.2,88.6Zm-10.6,38.5a22.1,22.1,0,0,1-4.4,6.9,21.6,21.6,0,0,1-6.5,4.3,22.2,22.2,0,0,1-7.6,1.4,19,19,0,0,1-14-5.7,20.6,20.6,0,0,1-4.5-6.9,27.3,27.3,0,0,1,0-18.4,20.6,20.6,0,0,1,4.5-6.9,19,19,0,0,1,14-5.7,22.2,22.2,0,0,1,7.6,1.4,21.6,21.6,0,0,1,6.5,4.3,22.1,22.1,0,0,1,4.4,6.9,27.2,27.2,0,0,1,0,18.4Z"/></g></g><g id="Rectangle_573_copy_2" data-name="Rectangle 573 copy 2"><g id="Rectangle_573_copy_2-2" data-name="Rectangle 573 copy 2"><path d="M197.9,119c0-4.3-1.5-5.9-5.7-6.5H121.6c-5.4,0-7,1.6-7,7V189c0,1.2.2,2.5.3,3.8a6.3,6.3,0,0,0,6,3.2h70.9c4.3,0,6.2-1.9,6.2-6.2C198,166.2,197.9,142.6,197.9,119Zm-12.7,66.9H127.4c-2.1,0-2.7-.6-2.7-2.7.2-9.6.1-19.2.1-28.9s.1-19.3-.1-28.9c0-2.1.6-2.6,2.7-2.6h57.8c2.1,0,2.7.5,2.7,2.6-.1,19.3-.1,38.6,0,57.8C187.9,185.3,187.3,185.9,185.2,185.9Zm-103-73.3h-67c-6.9,0-8.1,1.2-8.1,8.1,0,23.4-.1,46.8-.1,70.2,1.3,4.1,2.5,5.1,6.8,5.1H84.1c4.5,0,6.3-1.8,6.3-6.4s.1-11.4.1-17.1c0-17.3,0-34.5-.1-51.8C90.4,113.9,89.2,112.6,82.2,112.6Zm-1.9,70.6c0,2.1-.5,2.7-2.6,2.7H19.8c-2.1,0-2.6-.6-2.6-2.7.1-9.7,0-19.5,0-29.2s.1-19.1,0-28.6c0-2.1.6-2.7,2.6-2.7H77.7c2.1,0,2.6.6,2.6,2.7ZM13.8,88.4h70c4.9,0,6.6-1.7,6.6-6.6v-70c0-5-1.7-6.7-6.7-6.7H13.8c-5,0-6.7,1.7-6.7,6.7v70C7.1,86.7,8.8,88.4,13.8,88.4Zm6.1-73.2c9.7.1,19.5,0,29.2,0s18.8.1,28.3,0c2,0,2.9.2,2.9,2.7-.1,19.3-.1,38.5,0,57.8,0,2.1-.6,2.6-2.7,2.6H19.8c-2.1,0-2.6-.7-2.6-2.7.1-19.2.1-38.5,0-57.8C17.2,15.7,17.8,15.2,19.9,15.2Zm47,13.2H30.4V64.9H66.9ZM30.4,172.6H66.9V136H30.4Zm107.6,0h36.6V136H138Z" style="fill:#0645a3;fill-rule:evenodd"/></g></g><g id="Shape_7_copy" data-name="Shape 7 copy"><g id="Shape_7_copy-2" data-name="Shape 7 copy"><path d="M192.9,41.5c-5.1,0-10.2,0-15.3.2-3.5.1-5.7,2.2-5.7,5.1s2.2,4.9,5.7,5,5.1.1,7.7,0,2.6.4,2.5,2.4c-.1,7.2-.1,14.4.1,21.6,0,2-.6,2.6-2.5,2.5H164.1c-2.4.1-2.8-.8-2.8-2.9.1-7.9.1-15.7.1-23.5V11.5c0-4.4-1.8-6.4-5.7-6.4H120.4c-3.8,0-5.7,2-5.8,5.7V46.1c0,3.8,1.9,5.6,5.7,5.7s9.8.1,14.7,0,5.7-2.1,5.7-5-2.2-5-5.7-5.1a65.9,65.9,0,0,0-7.7,0c-1.8,0-2.6-.3-2.6-2.4.2-7.2.2-14.5,0-21.7,0-2,.6-2.4,2.5-2.4q10.7.2,21.3,0c2.1,0,2.8.5,2.7,2.7-.1,7.4,0,14.8,0,22.2v42c0,4.6,1.8,6.3,6.4,6.3h33.3c5.5,0,7.1-1.5,7.1-7.2V48.6C198,44,197.1,42.9,192.9,41.5ZM177.1,15.2a32.3,32.3,0,0,0,4.4,0c6.3,0,6.3,0,6.3,6.2v3.5c0,4,1.1,5.3,5.1,6.4,4-1.1,5-2.4,5.1-6.4s0-8.9-.1-13.3-1.3-5.8-5.6-6.6H177.1a5.1,5.1,0,0,0-5.2,5.2A5.1,5.1,0,0,0,177.1,15.2ZM135.3,78.3H127c-1.8.1-2.4-.5-2.3-2.3a82.3,82.3,0,0,0,.1-8.6,5.1,5.1,0,0,0-5.1-5,5,5,0,0,0-5,5.1c-.2,2.5-.1,5.1-.1,7.6h0v7.3a1.3,1.3,0,0,0,.1.6c.2,3.4,2,5.3,5.4,5.4h15.2a5.1,5.1,0,0,0,5.4-5.1C140.7,80.5,138.5,78.4,135.3,78.3Z" style="fill:#e28706;fill-rule:evenodd"/></g></g><g id="Code_copy" data-name="Code copy"><g id="Code_copy-2" data-name="Code copy"><path d="M545.7,124c-3.7,4.7-5.9,7.5-10.7,10l-7,24c9.5-2.5,20.5-5.7,32.7-19.8Z" style="fill:#e28706"/></g></g></svg>