<?xml version="1.0" encoding="UTF-8" standalone="no"?><svg   xmlns:dc="http://purl.org/dc/elements/1.1/"   xmlns:cc="http://creativecommons.org/ns#"   xmlns:rdf="http://www.w3.org/1999/02/22-rdf-syntax-ns#"   xmlns:svg="http://www.w3.org/2000/svg"   xmlns="http://www.w3.org/2000/svg"   xmlns:sodipodi="http://sodipodi.sourceforge.net/DTD/sodipodi-0.dtd"   xmlns:inkscape="http://www.inkscape.org/namespaces/inkscape"   version="1.1"   id="Layer_1"   x="0px"   y="0px"   width="464px"   height="464px"   viewBox="0 0 464 464"   enable-background="new 0 0 464 464"   xml:space="preserve"   inkscape:version="0.48.5 r10040"   sodipodi:docname="transparent-qrcode-dummy.svg"><metadata   id="metadata1469"><rdf:RDF><cc:Work       rdf:about=""><dc:format>image/svg+xml</dc:format><dc:type         rdf:resource="http://purl.org/dc/dcmitype/StillImage" /><dc:title></dc:title></cc:Work></rdf:RDF></metadata><defs   id="defs1467" /><sodipodi:namedview   pagecolor="#efefef"   bordercolor="#666666"   borderopacity="1"   objecttolerance="10"   gridtolerance="10"   guidetolerance="10"   inkscape:pageopacity="0.78823529"   inkscape:pageshadow="2"   inkscape:window-width="2160"   inkscape:window-height="1377"   id="namedview1465"   showgrid="false"   inkscape:zoom="2.0344828"   inkscape:cx="166.04486"   inkscape:cy="219.11354"   inkscape:window-x="-8"   inkscape:window-y="-8"   inkscape:window-maximized="1"   inkscape:current-layer="Layer_1" /><rect   style="opacity:0.7;fill:#ffffff;fill-opacity:1;stroke:none"   id="rect6555"   width="54.536926"   height="54.536926"   x="306.70001"   y="306.27689" /><g   id="g919"   transform="matrix(0.14855046,0,0,0.14855046,298.87255,298.87255)"><g     id="g921"     style="fill:#000000"><rect   y="0"   x="0"   id="rect923"   height="100"   width="100" /></g></g><g   id="g925"   transform="matrix(0.14855046,0,0,0.14855046,313.27743,298.87255)"><g     id="g927"     style="fill:#000000"><rect   y="0"   x="0"   id="rect929"   height="100"   width="100" /></g></g><g   id="g931"   transform="matrix(0.14855046,0,0,0.14855046,327.68233,298.87255)"><g     id="g933"     style="fill:#000000"><rect   y="0"   x="0"   id="rect935"   height="100"   width="100" /></g></g><g   id="g937"   transform="matrix(0.14855046,0,0,0.14855046,342.08723,298.87255)"><g     id="g939"     style="fill:#000000"><rect   y="0"   x="0"   id="rect941"   height="100"   width="100" /></g></g><g   id="g943"   transform="matrix(0.14855046,0,0,0.14855046,356.49211,298.87255)"><g     id="g945"     style="fill:#000000"><rect   y="0"   x="0"   id="rect947"   height="100"   width="100" /></g></g><g   id="g991"   transform="matrix(0.14855046,0,0,0.14855046,298.87255,313.27743)"><g     id="g993"     style="fill:#000000"><rect   y="0"   x="0"   id="rect995"   height="100"   width="100" /></g></g><g   id="g997"   transform="matrix(0.14855046,0,0,0.14855046,356.49211,313.27743)"><g     id="g999"     style="fill:#000000"><rect   y="0"   x="0"   id="rect1001"   height="100"   width="100" /></g></g><g   id="g1033"   transform="matrix(0.14855046,0,0,0.14855046,298.87255,327.68233)"><g     id="g1035"     style="fill:#000000"><rect   y="0"   x="0"   id="rect1037"   height="100"   width="100" /></g></g><g   id="g1039"   transform="matrix(0.14855046,0,0,0.14855046,327.68233,327.68233)"><g     id="g1041"     style="fill:#000000"><rect   y="0"   x="0"   id="rect1043"   height="100"   width="100" /></g></g><g   id="g1045"   transform="matrix(0.14855046,0,0,0.14855046,356.49211,327.68233)"><g     id="g1047"     style="fill:#000000"><rect   y="0"   x="0"   id="rect1049"   height="100"   width="100" /></g></g><g   id="g1087"   transform="matrix(0.14855046,0,0,0.14855046,298.87255,342.08723)"><g     id="g1089"     style="fill:#000000"><rect   y="0"   x="0"   id="rect1091"   height="100"   width="100" /></g></g><g   id="g1093"   transform="matrix(0.14855046,0,0,0.14855046,356.49211,342.08723)"><g     id="g1095"     style="fill:#000000"><rect   y="0"   x="0"   id="rect1097"   height="100"   width="100" /></g></g><g   id="g1135"   transform="matrix(0.14855046,0,0,0.14855046,298.87255,356.49211)"><g     id="g1137"     style="fill:#000000"><rect   y="0"   x="0"   id="rect1139"   height="100"   width="100" /></g></g><g   id="g1141"   transform="matrix(0.14855046,0,0,0.14855046,313.27743,356.49211)"><g     id="g1143"     style="fill:#000000"><rect   y="0"   x="0"   id="rect1145"   height="100"   width="100" /></g></g><g   id="g1147"   transform="matrix(0.14855046,0,0,0.14855046,327.68233,356.49211)"><g     id="g1149"     style="fill:#000000"><rect   y="0"   x="0"   id="rect1151"   height="100"   width="100" /></g></g><g   id="g1153"   transform="matrix(0.14855046,0,0,0.14855046,342.08723,356.49211)"><g     id="g1155"     style="fill:#000000"><rect   y="0"   x="0"   id="rect1157"   height="100"   width="100" /></g></g><g   id="g1159"   transform="matrix(0.14855046,0,0,0.14855046,356.49211,356.49211)"><g     id="g1161"     style="fill:#000000"><rect   y="0"   x="0"   id="rect1163"   height="100"   width="100" /></g></g><rect   y="0"   x="331.27618"   height="132.72383"   width="132.72383"   id="rect6551"   style="opacity:0.7;fill:#ffffff;fill-opacity:1;stroke:none" /><g   id="g1427"   transform="matrix(1.0251793,0,0,1.0251793,346.31934,15.162718)"><g     id="g1429"     style="fill:#000000"><g   id="g1431">	<rect   id="rect1433"   height="70"   width="70"   style="fill:none"   y="15"   x="15" />	<path   inkscape:connector-curvature="0"   id="path1435"   d="M 85,0 H 15 0 v 15 70 15 h 15 70 15 V 85 15 0 H 85 z m 0,85 H 15 V 15 h 70 v 70 z" /></g></g></g><g   id="g1453"   transform="matrix(0.43936256,0,0,0.43936256,375.61017,44.453555)"><g     id="g1455"     style="fill:#000000"><rect   y="0"   x="0"   id="rect1457"   height="100"   width="100" /></g></g><rect   style="opacity:0.7;fill:#ffffff;fill-opacity:1;stroke:none"   id="rect6752"   width="132.72383"   height="132.72383"   x="4.2562501e-006"   y="0" /><g   transform="matrix(1.0251793,0,0,1.0251793,15.04317,15.162718)"   id="g6754"><g     style="fill:#000000"     id="g6756"><g   id="g6758">	<rect   x="15"   y="15"   style="fill:none"   width="70"   height="70"   id="rect6760" />	<path   d="M 85,0 H 15 0 v 15 70 15 h 15 70 15 V 85 15 0 H 85 z m 0,85 H 15 V 15 h 70 v 70 z"   id="path6762"   inkscape:connector-curvature="0" /></g></g></g><g   transform="matrix(0.43936256,0,0,0.43936256,44.334009,44.453555)"   id="g6764"><g     style="fill:#000000"     id="g6766"><rect   width="100"   height="100"   id="rect6768"   x="0"   y="0" /></g></g><rect   y="331.27618"   x="4.2562501e-006"   height="132.72383"   width="132.72383"   id="rect6772"   style="opacity:0.7;fill:#ffffff;fill-opacity:1;stroke:none" /><g   id="g6774"   transform="matrix(1.0251793,0,0,1.0251793,15.04317,346.43889)"><g     id="g6776"     style="fill:#000000"><g   id="g6778">	<rect   id="rect6780"   height="70"   width="70"   style="fill:none"   y="15"   x="15" />	<path   inkscape:connector-curvature="0"   id="path6782"   d="M 85,0 H 15 0 v 15 70 15 h 15 70 15 V 85 15 0 H 85 z m 0,85 H 15 V 15 h 70 v 70 z" /></g></g></g><g   id="g6784"   transform="matrix(0.43936256,0,0,0.43936256,44.334009,375.72973)"><g     id="g6786"     style="fill:#000000"><rect   y="0"   x="0"   id="rect6788"   height="100"   width="100" /></g></g></svg>