<?xml version="1.0" encoding="utf-8"?>
<!DOCTYPE svg PUBLIC "-//W3C//DTD SVG 1.1//EN" "http://www.w3.org/Graphics/SVG/1.1/DTD/svg11.dtd">
<svg version="1.1" id="Layer_1" xmlns="http://www.w3.org/2000/svg" xmlns:xlink="http://www.w3.org/1999/xlink" x="0px" y="0px"
width="377px" height="377px" viewBox="0 0 377 377" enable-background="new 0 0 377 377" xml:space="preserve">
<rect x="0" y="0" width="377" height="377" fill="rgb(255,255,255)" /><g transform="translate(26,26)"><g transform="translate(104,0) scale(0.13,0.13)"><g transform="" style="fill: rgb(204, 37, 37);">
<rect width="100" height="100"/>
</g></g><g transform="translate(117,0) scale(0.13,0.13)"><g transform="" style="fill: rgb(204, 37, 37);">
<rect width="100" height="100"/>
</g></g><g transform="translate(130,0) scale(0.13,0.13)"><g transform="" style="fill: rgb(204, 37, 37);">
<rect width="100" height="100"/>
</g></g><g transform="translate(143,0) scale(0.13,0.13)"><g transform="" style="fill: rgb(204, 37, 37);">
<rect width="100" height="100"/>
</g></g><g transform="translate(182,0) scale(0.13,0.13)"><g transform="" style="fill: rgb(204, 37, 37);">
<rect width="100" height="100"/>
</g></g><g transform="translate(208,0) scale(0.13,0.13)"><g transform="" style="fill: rgb(204, 37, 37);">
<rect width="100" height="100"/>
</g></g><g transform="translate(104,13) scale(0.13,0.13)"><g transform="" style="fill: rgb(204, 37, 37);">
<rect width="100" height="100"/>
</g></g><g transform="translate(143,13) scale(0.13,0.13)"><g transform="" style="fill: rgb(204, 37, 37);">
<rect width="100" height="100"/>
</g></g><g transform="translate(208,13) scale(0.13,0.13)"><g transform="" style="fill: rgb(204, 37, 37);">
<rect width="100" height="100"/>
</g></g><g transform="translate(104,26) scale(0.13,0.13)"><g transform="" style="fill: rgb(204, 37, 37);">
<rect width="100" height="100"/>
</g></g><g transform="translate(117,26) scale(0.13,0.13)"><g transform="" style="fill: rgb(204, 37, 37);">
<rect width="100" height="100"/>
</g></g><g transform="translate(156,26) scale(0.13,0.13)"><g transform="" style="fill: rgb(204, 37, 37);">
<rect width="100" height="100"/>
</g></g><g transform="translate(169,26) scale(0.13,0.13)"><g transform="" style="fill: rgb(204, 37, 37);">
<rect width="100" height="100"/>
</g></g><g transform="translate(182,26) scale(0.13,0.13)"><g transform="" style="fill: rgb(204, 37, 37);">
<rect width="100" height="100"/>
</g></g><g transform="translate(117,39) scale(0.13,0.13)"><g transform="" style="fill: rgb(204, 37, 37);">
<rect width="100" height="100"/>
</g></g><g transform="translate(130,39) scale(0.13,0.13)"><g transform="" style="fill: rgb(204, 37, 37);">
<rect width="100" height="100"/>
</g></g><g transform="translate(143,39) scale(0.13,0.13)"><g transform="" style="fill: rgb(204, 37, 37);">
<rect width="100" height="100"/>
</g></g><g transform="translate(156,39) scale(0.13,0.13)"><g transform="" style="fill: rgb(204, 37, 37);">
<rect width="100" height="100"/>
</g></g><g transform="translate(169,39) scale(0.13,0.13)"><g transform="" style="fill: rgb(204, 37, 37);">
<rect width="100" height="100"/>
</g></g><g transform="translate(195,39) scale(0.13,0.13)"><g transform="" style="fill: rgb(204, 37, 37);">
<rect width="100" height="100"/>
</g></g><g transform="translate(208,39) scale(0.13,0.13)"><g transform="" style="fill: rgb(204, 37, 37);">
<rect width="100" height="100"/>
</g></g><g transform="translate(104,52) scale(0.13,0.13)"><g transform="" style="fill: rgb(204, 37, 37);">
<rect width="100" height="100"/>
</g></g><g transform="translate(156,52) scale(0.13,0.13)"><g transform="" style="fill: rgb(204, 37, 37);">
<rect width="100" height="100"/>
</g></g><g transform="translate(208,52) scale(0.13,0.13)"><g transform="" style="fill: rgb(204, 37, 37);">
<rect width="100" height="100"/>
</g></g><g transform="translate(130,65) scale(0.13,0.13)"><g transform="" style="fill: rgb(204, 37, 37);">
<rect width="100" height="100"/>
</g></g><g transform="translate(169,65) scale(0.13,0.13)"><g transform="" style="fill: rgb(204, 37, 37);">
<rect width="100" height="100"/>
</g></g><g transform="translate(104,78) scale(0.13,0.13)"><g transform="" style="fill: rgb(204, 37, 37);">
<rect width="100" height="100"/>
</g></g><g transform="translate(130,78) scale(0.13,0.13)"><g transform="" style="fill: rgb(204, 37, 37);">
<rect width="100" height="100"/>
</g></g><g transform="translate(156,78) scale(0.13,0.13)"><g transform="" style="fill: rgb(204, 37, 37);">
<rect width="100" height="100"/>
</g></g><g transform="translate(182,78) scale(0.13,0.13)"><g transform="" style="fill: rgb(204, 37, 37);">
<rect width="100" height="100"/>
</g></g><g transform="translate(208,78) scale(0.13,0.13)"><g transform="" style="fill: rgb(204, 37, 37);">
<rect width="100" height="100"/>
</g></g><g transform="translate(117,91) scale(0.13,0.13)"><g transform="" style="fill: rgb(204, 37, 37);">
<rect width="100" height="100"/>
</g></g><g transform="translate(130,91) scale(0.13,0.13)"><g transform="" style="fill: rgb(204, 37, 37);">
<rect width="100" height="100"/>
</g></g><g transform="translate(156,91) scale(0.13,0.13)"><g transform="" style="fill: rgb(204, 37, 37);">
<rect width="100" height="100"/>
</g></g><g transform="translate(169,91) scale(0.13,0.13)"><g transform="" style="fill: rgb(204, 37, 37);">
<rect width="100" height="100"/>
</g></g><g transform="translate(182,91) scale(0.13,0.13)"><g transform="" style="fill: rgb(204, 37, 37);">
<rect width="100" height="100"/>
</g></g><g transform="translate(0,104) scale(0.13,0.13)"><g transform="" style="fill: rgb(204, 37, 37);">
<rect width="100" height="100"/>
</g></g><g transform="translate(39,104) scale(0.13,0.13)"><g transform="" style="fill: rgb(204, 37, 37);">
<rect width="100" height="100"/>
</g></g><g transform="translate(52,104) scale(0.13,0.13)"><g transform="" style="fill: rgb(204, 37, 37);">
<rect width="100" height="100"/>
</g></g><g transform="translate(65,104) scale(0.13,0.13)"><g transform="" style="fill: rgb(204, 37, 37);">
<rect width="100" height="100"/>
</g></g><g transform="translate(78,104) scale(0.13,0.13)"><g transform="" style="fill: rgb(204, 37, 37);">
<rect width="100" height="100"/>
</g></g><g transform="translate(91,104) scale(0.13,0.13)"><g transform="" style="fill: rgb(204, 37, 37);">
<rect width="100" height="100"/>
</g></g><g transform="translate(104,104) scale(0.13,0.13)"><g transform="" style="fill: rgb(204, 37, 37);">
<rect width="100" height="100"/>
</g></g><g transform="translate(117,104) scale(0.13,0.13)"><g transform="" style="fill: rgb(204, 37, 37);">
<rect width="100" height="100"/>
</g></g><g transform="translate(143,104) scale(0.13,0.13)"><g transform="" style="fill: rgb(204, 37, 37);">
<rect width="100" height="100"/>
</g></g><g transform="translate(156,104) scale(0.13,0.13)"><g transform="" style="fill: rgb(204, 37, 37);">
<rect width="100" height="100"/>
</g></g><g transform="translate(208,104) scale(0.13,0.13)"><g transform="" style="fill: rgb(204, 37, 37);">
<rect width="100" height="100"/>
</g></g><g transform="translate(221,104) scale(0.13,0.13)"><g transform="" style="fill: rgb(204, 37, 37);">
<rect width="100" height="100"/>
</g></g><g transform="translate(260,104) scale(0.13,0.13)"><g transform="" style="fill: rgb(204, 37, 37);">
<rect width="100" height="100"/>
</g></g><g transform="translate(286,104) scale(0.13,0.13)"><g transform="" style="fill: rgb(204, 37, 37);">
<rect width="100" height="100"/>
</g></g><g transform="translate(299,104) scale(0.13,0.13)"><g transform="" style="fill: rgb(204, 37, 37);">
<rect width="100" height="100"/>
</g></g><g transform="translate(312,104) scale(0.13,0.13)"><g transform="" style="fill: rgb(204, 37, 37);">
<rect width="100" height="100"/>
</g></g><g transform="translate(0,117) scale(0.13,0.13)"><g transform="" style="fill: rgb(204, 37, 37);">
<rect width="100" height="100"/>
</g></g><g transform="translate(13,117) scale(0.13,0.13)"><g transform="" style="fill: rgb(204, 37, 37);">
<rect width="100" height="100"/>
</g></g><g transform="translate(39,117) scale(0.13,0.13)"><g transform="" style="fill: rgb(204, 37, 37);">
<rect width="100" height="100"/>
</g></g><g transform="translate(91,117) scale(0.13,0.13)"><g transform="" style="fill: rgb(204, 37, 37);">
<rect width="100" height="100"/>
</g></g><g transform="translate(104,117) scale(0.13,0.13)"><g transform="" style="fill: rgb(204, 37, 37);">
<rect width="100" height="100"/>
</g></g><g transform="translate(130,117) scale(0.13,0.13)"><g transform="" style="fill: rgb(204, 37, 37);">
<rect width="100" height="100"/>
</g></g><g transform="translate(143,117) scale(0.13,0.13)"><g transform="" style="fill: rgb(204, 37, 37);">
<rect width="100" height="100"/>
</g></g><g transform="translate(195,117) scale(0.13,0.13)"><g transform="" style="fill: rgb(204, 37, 37);">
<rect width="100" height="100"/>
</g></g><g transform="translate(221,117) scale(0.13,0.13)"><g transform="" style="fill: rgb(204, 37, 37);">
<rect width="100" height="100"/>
</g></g><g transform="translate(247,117) scale(0.13,0.13)"><g transform="" style="fill: rgb(204, 37, 37);">
<rect width="100" height="100"/>
</g></g><g transform="translate(260,117) scale(0.13,0.13)"><g transform="" style="fill: rgb(204, 37, 37);">
<rect width="100" height="100"/>
</g></g><g transform="translate(273,117) scale(0.13,0.13)"><g transform="" style="fill: rgb(204, 37, 37);">
<rect width="100" height="100"/>
</g></g><g transform="translate(286,117) scale(0.13,0.13)"><g transform="" style="fill: rgb(204, 37, 37);">
<rect width="100" height="100"/>
</g></g><g transform="translate(299,117) scale(0.13,0.13)"><g transform="" style="fill: rgb(204, 37, 37);">
<rect width="100" height="100"/>
</g></g><g transform="translate(0,130) scale(0.13,0.13)"><g transform="" style="fill: rgb(204, 37, 37);">
<rect width="100" height="100"/>
</g></g><g transform="translate(13,130) scale(0.13,0.13)"><g transform="" style="fill: rgb(204, 37, 37);">
<rect width="100" height="100"/>
</g></g><g transform="translate(39,130) scale(0.13,0.13)"><g transform="" style="fill: rgb(204, 37, 37);">
<rect width="100" height="100"/>
</g></g><g transform="translate(52,130) scale(0.13,0.13)"><g transform="" style="fill: rgb(204, 37, 37);">
<rect width="100" height="100"/>
</g></g><g transform="translate(65,130) scale(0.13,0.13)"><g transform="" style="fill: rgb(204, 37, 37);">
<rect width="100" height="100"/>
</g></g><g transform="translate(78,130) scale(0.13,0.13)"><g transform="" style="fill: rgb(204, 37, 37);">
<rect width="100" height="100"/>
</g></g><g transform="translate(104,130) scale(0.13,0.13)"><g transform="" style="fill: rgb(204, 37, 37);">
<rect width="100" height="100"/>
</g></g><g transform="translate(130,130) scale(0.13,0.13)"><g transform="" style="fill: rgb(204, 37, 37);">
<rect width="100" height="100"/>
</g></g><g transform="translate(182,130) scale(0.13,0.13)"><g transform="" style="fill: rgb(204, 37, 37);">
<rect width="100" height="100"/>
</g></g><g transform="translate(195,130) scale(0.13,0.13)"><g transform="" style="fill: rgb(204, 37, 37);">
<rect width="100" height="100"/>
</g></g><g transform="translate(221,130) scale(0.13,0.13)"><g transform="" style="fill: rgb(204, 37, 37);">
<rect width="100" height="100"/>
</g></g><g transform="translate(234,130) scale(0.13,0.13)"><g transform="" style="fill: rgb(204, 37, 37);">
<rect width="100" height="100"/>
</g></g><g transform="translate(247,130) scale(0.13,0.13)"><g transform="" style="fill: rgb(204, 37, 37);">
<rect width="100" height="100"/>
</g></g><g transform="translate(260,130) scale(0.13,0.13)"><g transform="" style="fill: rgb(204, 37, 37);">
<rect width="100" height="100"/>
</g></g><g transform="translate(273,130) scale(0.13,0.13)"><g transform="" style="fill: rgb(204, 37, 37);">
<rect width="100" height="100"/>
</g></g><g transform="translate(312,130) scale(0.13,0.13)"><g transform="" style="fill: rgb(204, 37, 37);">
<rect width="100" height="100"/>
</g></g><g transform="translate(13,143) scale(0.13,0.13)"><g transform="" style="fill: rgb(204, 37, 37);">
<rect width="100" height="100"/>
</g></g><g transform="translate(52,143) scale(0.13,0.13)"><g transform="" style="fill: rgb(204, 37, 37);">
<rect width="100" height="100"/>
</g></g><g transform="translate(91,143) scale(0.13,0.13)"><g transform="" style="fill: rgb(204, 37, 37);">
<rect width="100" height="100"/>
</g></g><g transform="translate(117,143) scale(0.13,0.13)"><g transform="" style="fill: rgb(204, 37, 37);">
<rect width="100" height="100"/>
</g></g><g transform="translate(156,143) scale(0.13,0.13)"><g transform="" style="fill: rgb(204, 37, 37);">
<rect width="100" height="100"/>
</g></g><g transform="translate(195,143) scale(0.13,0.13)"><g transform="" style="fill: rgb(204, 37, 37);">
<rect width="100" height="100"/>
</g></g><g transform="translate(221,143) scale(0.13,0.13)"><g transform="" style="fill: rgb(204, 37, 37);">
<rect width="100" height="100"/>
</g></g><g transform="translate(273,143) scale(0.13,0.13)"><g transform="" style="fill: rgb(204, 37, 37);">
<rect width="100" height="100"/>
</g></g><g transform="translate(286,143) scale(0.13,0.13)"><g transform="" style="fill: rgb(204, 37, 37);">
<rect width="100" height="100"/>
</g></g><g transform="translate(299,143) scale(0.13,0.13)"><g transform="" style="fill: rgb(204, 37, 37);">
<rect width="100" height="100"/>
</g></g><g transform="translate(312,143) scale(0.13,0.13)"><g transform="" style="fill: rgb(204, 37, 37);">
<rect width="100" height="100"/>
</g></g><g transform="translate(0,156) scale(0.13,0.13)"><g transform="" style="fill: rgb(204, 37, 37);">
<rect width="100" height="100"/>
</g></g><g transform="translate(39,156) scale(0.13,0.13)"><g transform="" style="fill: rgb(204, 37, 37);">
<rect width="100" height="100"/>
</g></g><g transform="translate(52,156) scale(0.13,0.13)"><g transform="" style="fill: rgb(204, 37, 37);">
<rect width="100" height="100"/>
</g></g><g transform="translate(65,156) scale(0.13,0.13)"><g transform="" style="fill: rgb(204, 37, 37);">
<rect width="100" height="100"/>
</g></g><g transform="translate(78,156) scale(0.13,0.13)"><g transform="" style="fill: rgb(204, 37, 37);">
<rect width="100" height="100"/>
</g></g><g transform="translate(117,156) scale(0.13,0.13)"><g transform="" style="fill: rgb(204, 37, 37);">
<rect width="100" height="100"/>
</g></g><g transform="translate(143,156) scale(0.13,0.13)"><g transform="" style="fill: rgb(204, 37, 37);">
<rect width="100" height="100"/>
</g></g><g transform="translate(156,156) scale(0.13,0.13)"><g transform="" style="fill: rgb(204, 37, 37);">
<rect width="100" height="100"/>
</g></g><g transform="translate(208,156) scale(0.13,0.13)"><g transform="" style="fill: rgb(204, 37, 37);">
<rect width="100" height="100"/>
</g></g><g transform="translate(234,156) scale(0.13,0.13)"><g transform="" style="fill: rgb(204, 37, 37);">
<rect width="100" height="100"/>
</g></g><g transform="translate(312,156) scale(0.13,0.13)"><g transform="" style="fill: rgb(204, 37, 37);">
<rect width="100" height="100"/>
</g></g><g transform="translate(0,169) scale(0.13,0.13)"><g transform="" style="fill: rgb(204, 37, 37);">
<rect width="100" height="100"/>
</g></g><g transform="translate(13,169) scale(0.13,0.13)"><g transform="" style="fill: rgb(204, 37, 37);">
<rect width="100" height="100"/>
</g></g><g transform="translate(52,169) scale(0.13,0.13)"><g transform="" style="fill: rgb(204, 37, 37);">
<rect width="100" height="100"/>
</g></g><g transform="translate(65,169) scale(0.13,0.13)"><g transform="" style="fill: rgb(204, 37, 37);">
<rect width="100" height="100"/>
</g></g><g transform="translate(182,169) scale(0.13,0.13)"><g transform="" style="fill: rgb(204, 37, 37);">
<rect width="100" height="100"/>
</g></g><g transform="translate(195,169) scale(0.13,0.13)"><g transform="" style="fill: rgb(204, 37, 37);">
<rect width="100" height="100"/>
</g></g><g transform="translate(221,169) scale(0.13,0.13)"><g transform="" style="fill: rgb(204, 37, 37);">
<rect width="100" height="100"/>
</g></g><g transform="translate(260,169) scale(0.13,0.13)"><g transform="" style="fill: rgb(204, 37, 37);">
<rect width="100" height="100"/>
</g></g><g transform="translate(299,169) scale(0.13,0.13)"><g transform="" style="fill: rgb(204, 37, 37);">
<rect width="100" height="100"/>
</g></g><g transform="translate(0,182) scale(0.13,0.13)"><g transform="" style="fill: rgb(204, 37, 37);">
<rect width="100" height="100"/>
</g></g><g transform="translate(13,182) scale(0.13,0.13)"><g transform="" style="fill: rgb(204, 37, 37);">
<rect width="100" height="100"/>
</g></g><g transform="translate(26,182) scale(0.13,0.13)"><g transform="" style="fill: rgb(204, 37, 37);">
<rect width="100" height="100"/>
</g></g><g transform="translate(39,182) scale(0.13,0.13)"><g transform="" style="fill: rgb(204, 37, 37);">
<rect width="100" height="100"/>
</g></g><g transform="translate(78,182) scale(0.13,0.13)"><g transform="" style="fill: rgb(204, 37, 37);">
<rect width="100" height="100"/>
</g></g><g transform="translate(91,182) scale(0.13,0.13)"><g transform="" style="fill: rgb(204, 37, 37);">
<rect width="100" height="100"/>
</g></g><g transform="translate(104,182) scale(0.13,0.13)"><g transform="" style="fill: rgb(204, 37, 37);">
<rect width="100" height="100"/>
</g></g><g transform="translate(143,182) scale(0.13,0.13)"><g transform="" style="fill: rgb(204, 37, 37);">
<rect width="100" height="100"/>
</g></g><g transform="translate(156,182) scale(0.13,0.13)"><g transform="" style="fill: rgb(204, 37, 37);">
<rect width="100" height="100"/>
</g></g><g transform="translate(195,182) scale(0.13,0.13)"><g transform="" style="fill: rgb(204, 37, 37);">
<rect width="100" height="100"/>
</g></g><g transform="translate(208,182) scale(0.13,0.13)"><g transform="" style="fill: rgb(204, 37, 37);">
<rect width="100" height="100"/>
</g></g><g transform="translate(234,182) scale(0.13,0.13)"><g transform="" style="fill: rgb(204, 37, 37);">
<rect width="100" height="100"/>
</g></g><g transform="translate(260,182) scale(0.13,0.13)"><g transform="" style="fill: rgb(204, 37, 37);">
<rect width="100" height="100"/>
</g></g><g transform="translate(273,182) scale(0.13,0.13)"><g transform="" style="fill: rgb(204, 37, 37);">
<rect width="100" height="100"/>
</g></g><g transform="translate(286,182) scale(0.13,0.13)"><g transform="" style="fill: rgb(204, 37, 37);">
<rect width="100" height="100"/>
</g></g><g transform="translate(299,182) scale(0.13,0.13)"><g transform="" style="fill: rgb(204, 37, 37);">
<rect width="100" height="100"/>
</g></g><g transform="translate(312,182) scale(0.13,0.13)"><g transform="" style="fill: rgb(204, 37, 37);">
<rect width="100" height="100"/>
</g></g><g transform="translate(0,195) scale(0.13,0.13)"><g transform="" style="fill: rgb(204, 37, 37);">
<rect width="100" height="100"/>
</g></g><g transform="translate(26,195) scale(0.13,0.13)"><g transform="" style="fill: rgb(204, 37, 37);">
<rect width="100" height="100"/>
</g></g><g transform="translate(39,195) scale(0.13,0.13)"><g transform="" style="fill: rgb(204, 37, 37);">
<rect width="100" height="100"/>
</g></g><g transform="translate(52,195) scale(0.13,0.13)"><g transform="" style="fill: rgb(204, 37, 37);">
<rect width="100" height="100"/>
</g></g><g transform="translate(65,195) scale(0.13,0.13)"><g transform="" style="fill: rgb(204, 37, 37);">
<rect width="100" height="100"/>
</g></g><g transform="translate(104,195) scale(0.13,0.13)"><g transform="" style="fill: rgb(204, 37, 37);">
<rect width="100" height="100"/>
</g></g><g transform="translate(143,195) scale(0.13,0.13)"><g transform="" style="fill: rgb(204, 37, 37);">
<rect width="100" height="100"/>
</g></g><g transform="translate(221,195) scale(0.13,0.13)"><g transform="" style="fill: rgb(204, 37, 37);">
<rect width="100" height="100"/>
</g></g><g transform="translate(247,195) scale(0.13,0.13)"><g transform="" style="fill: rgb(204, 37, 37);">
<rect width="100" height="100"/>
</g></g><g transform="translate(273,195) scale(0.13,0.13)"><g transform="" style="fill: rgb(204, 37, 37);">
<rect width="100" height="100"/>
</g></g><g transform="translate(286,195) scale(0.13,0.13)"><g transform="" style="fill: rgb(204, 37, 37);">
<rect width="100" height="100"/>
</g></g><g transform="translate(312,195) scale(0.13,0.13)"><g transform="" style="fill: rgb(204, 37, 37);">
<rect width="100" height="100"/>
</g></g><g transform="translate(0,208) scale(0.13,0.13)"><g transform="" style="fill: rgb(204, 37, 37);">
<rect width="100" height="100"/>
</g></g><g transform="translate(39,208) scale(0.13,0.13)"><g transform="" style="fill: rgb(204, 37, 37);">
<rect width="100" height="100"/>
</g></g><g transform="translate(52,208) scale(0.13,0.13)"><g transform="" style="fill: rgb(204, 37, 37);">
<rect width="100" height="100"/>
</g></g><g transform="translate(65,208) scale(0.13,0.13)"><g transform="" style="fill: rgb(204, 37, 37);">
<rect width="100" height="100"/>
</g></g><g transform="translate(78,208) scale(0.13,0.13)"><g transform="" style="fill: rgb(204, 37, 37);">
<rect width="100" height="100"/>
</g></g><g transform="translate(91,208) scale(0.13,0.13)"><g transform="" style="fill: rgb(204, 37, 37);">
<rect width="100" height="100"/>
</g></g><g transform="translate(117,208) scale(0.13,0.13)"><g transform="" style="fill: rgb(204, 37, 37);">
<rect width="100" height="100"/>
</g></g><g transform="translate(156,208) scale(0.13,0.13)"><g transform="" style="fill: rgb(204, 37, 37);">
<rect width="100" height="100"/>
</g></g><g transform="translate(169,208) scale(0.13,0.13)"><g transform="" style="fill: rgb(204, 37, 37);">
<rect width="100" height="100"/>
</g></g><g transform="translate(182,208) scale(0.13,0.13)"><g transform="" style="fill: rgb(204, 37, 37);">
<rect width="100" height="100"/>
</g></g><g transform="translate(195,208) scale(0.13,0.13)"><g transform="" style="fill: rgb(204, 37, 37);">
<rect width="100" height="100"/>
</g></g><g transform="translate(208,208) scale(0.13,0.13)"><g transform="" style="fill: rgb(204, 37, 37);">
<rect width="100" height="100"/>
</g></g><g transform="translate(221,208) scale(0.13,0.13)"><g transform="" style="fill: rgb(204, 37, 37);">
<rect width="100" height="100"/>
</g></g><g transform="translate(234,208) scale(0.13,0.13)"><g transform="" style="fill: rgb(204, 37, 37);">
<rect width="100" height="100"/>
</g></g><g transform="translate(247,208) scale(0.13,0.13)"><g transform="" style="fill: rgb(204, 37, 37);">
<rect width="100" height="100"/>
</g></g><g transform="translate(260,208) scale(0.13,0.13)"><g transform="" style="fill: rgb(204, 37, 37);">
<rect width="100" height="100"/>
</g></g><g transform="translate(286,208) scale(0.13,0.13)"><g transform="" style="fill: rgb(204, 37, 37);">
<rect width="100" height="100"/>
</g></g><g transform="translate(299,208) scale(0.13,0.13)"><g transform="" style="fill: rgb(204, 37, 37);">
<rect width="100" height="100"/>
</g></g><g transform="translate(104,221) scale(0.13,0.13)"><g transform="" style="fill: rgb(204, 37, 37);">
<rect width="100" height="100"/>
</g></g><g transform="translate(117,221) scale(0.13,0.13)"><g transform="" style="fill: rgb(204, 37, 37);">
<rect width="100" height="100"/>
</g></g><g transform="translate(130,221) scale(0.13,0.13)"><g transform="" style="fill: rgb(204, 37, 37);">
<rect width="100" height="100"/>
</g></g><g transform="translate(143,221) scale(0.13,0.13)"><g transform="" style="fill: rgb(204, 37, 37);">
<rect width="100" height="100"/>
</g></g><g transform="translate(156,221) scale(0.13,0.13)"><g transform="" style="fill: rgb(204, 37, 37);">
<rect width="100" height="100"/>
</g></g><g transform="translate(182,221) scale(0.13,0.13)"><g transform="" style="fill: rgb(204, 37, 37);">
<rect width="100" height="100"/>
</g></g><g transform="translate(208,221) scale(0.13,0.13)"><g transform="" style="fill: rgb(204, 37, 37);">
<rect width="100" height="100"/>
</g></g><g transform="translate(260,221) scale(0.13,0.13)"><g transform="" style="fill: rgb(204, 37, 37);">
<rect width="100" height="100"/>
</g></g><g transform="translate(286,221) scale(0.13,0.13)"><g transform="" style="fill: rgb(204, 37, 37);">
<rect width="100" height="100"/>
</g></g><g transform="translate(299,221) scale(0.13,0.13)"><g transform="" style="fill: rgb(204, 37, 37);">
<rect width="100" height="100"/>
</g></g><g transform="translate(104,234) scale(0.13,0.13)"><g transform="" style="fill: rgb(204, 37, 37);">
<rect width="100" height="100"/>
</g></g><g transform="translate(130,234) scale(0.13,0.13)"><g transform="" style="fill: rgb(204, 37, 37);">
<rect width="100" height="100"/>
</g></g><g transform="translate(143,234) scale(0.13,0.13)"><g transform="" style="fill: rgb(204, 37, 37);">
<rect width="100" height="100"/>
</g></g><g transform="translate(156,234) scale(0.13,0.13)"><g transform="" style="fill: rgb(204, 37, 37);">
<rect width="100" height="100"/>
</g></g><g transform="translate(169,234) scale(0.13,0.13)"><g transform="" style="fill: rgb(204, 37, 37);">
<rect width="100" height="100"/>
</g></g><g transform="translate(208,234) scale(0.13,0.13)"><g transform="" style="fill: rgb(204, 37, 37);">
<rect width="100" height="100"/>
</g></g><g transform="translate(234,234) scale(0.13,0.13)"><g transform="" style="fill: rgb(204, 37, 37);">
<rect width="100" height="100"/>
</g></g><g transform="translate(260,234) scale(0.13,0.13)"><g transform="" style="fill: rgb(204, 37, 37);">
<rect width="100" height="100"/>
</g></g><g transform="translate(312,234) scale(0.13,0.13)"><g transform="" style="fill: rgb(204, 37, 37);">
<rect width="100" height="100"/>
</g></g><g transform="translate(104,247) scale(0.13,0.13)"><g transform="" style="fill: rgb(204, 37, 37);">
<rect width="100" height="100"/>
</g></g><g transform="translate(117,247) scale(0.13,0.13)"><g transform="" style="fill: rgb(204, 37, 37);">
<rect width="100" height="100"/>
</g></g><g transform="translate(130,247) scale(0.13,0.13)"><g transform="" style="fill: rgb(204, 37, 37);">
<rect width="100" height="100"/>
</g></g><g transform="translate(156,247) scale(0.13,0.13)"><g transform="" style="fill: rgb(204, 37, 37);">
<rect width="100" height="100"/>
</g></g><g transform="translate(169,247) scale(0.13,0.13)"><g transform="" style="fill: rgb(204, 37, 37);">
<rect width="100" height="100"/>
</g></g><g transform="translate(182,247) scale(0.13,0.13)"><g transform="" style="fill: rgb(204, 37, 37);">
<rect width="100" height="100"/>
</g></g><g transform="translate(195,247) scale(0.13,0.13)"><g transform="" style="fill: rgb(204, 37, 37);">
<rect width="100" height="100"/>
</g></g><g transform="translate(208,247) scale(0.13,0.13)"><g transform="" style="fill: rgb(204, 37, 37);">
<rect width="100" height="100"/>
</g></g><g transform="translate(260,247) scale(0.13,0.13)"><g transform="" style="fill: rgb(204, 37, 37);">
<rect width="100" height="100"/>
</g></g><g transform="translate(299,247) scale(0.13,0.13)"><g transform="" style="fill: rgb(204, 37, 37);">
<rect width="100" height="100"/>
</g></g><g transform="translate(312,247) scale(0.13,0.13)"><g transform="" style="fill: rgb(204, 37, 37);">
<rect width="100" height="100"/>
</g></g><g transform="translate(104,260) scale(0.13,0.13)"><g transform="" style="fill: rgb(204, 37, 37);">
<rect width="100" height="100"/>
</g></g><g transform="translate(117,260) scale(0.13,0.13)"><g transform="" style="fill: rgb(204, 37, 37);">
<rect width="100" height="100"/>
</g></g><g transform="translate(130,260) scale(0.13,0.13)"><g transform="" style="fill: rgb(204, 37, 37);">
<rect width="100" height="100"/>
</g></g><g transform="translate(143,260) scale(0.13,0.13)"><g transform="" style="fill: rgb(204, 37, 37);">
<rect width="100" height="100"/>
</g></g><g transform="translate(182,260) scale(0.13,0.13)"><g transform="" style="fill: rgb(204, 37, 37);">
<rect width="100" height="100"/>
</g></g><g transform="translate(195,260) scale(0.13,0.13)"><g transform="" style="fill: rgb(204, 37, 37);">
<rect width="100" height="100"/>
</g></g><g transform="translate(208,260) scale(0.13,0.13)"><g transform="" style="fill: rgb(204, 37, 37);">
<rect width="100" height="100"/>
</g></g><g transform="translate(221,260) scale(0.13,0.13)"><g transform="" style="fill: rgb(204, 37, 37);">
<rect width="100" height="100"/>
</g></g><g transform="translate(234,260) scale(0.13,0.13)"><g transform="" style="fill: rgb(204, 37, 37);">
<rect width="100" height="100"/>
</g></g><g transform="translate(247,260) scale(0.13,0.13)"><g transform="" style="fill: rgb(204, 37, 37);">
<rect width="100" height="100"/>
</g></g><g transform="translate(260,260) scale(0.13,0.13)"><g transform="" style="fill: rgb(204, 37, 37);">
<rect width="100" height="100"/>
</g></g><g transform="translate(104,273) scale(0.13,0.13)"><g transform="" style="fill: rgb(204, 37, 37);">
<rect width="100" height="100"/>
</g></g><g transform="translate(130,273) scale(0.13,0.13)"><g transform="" style="fill: rgb(204, 37, 37);">
<rect width="100" height="100"/>
</g></g><g transform="translate(143,273) scale(0.13,0.13)"><g transform="" style="fill: rgb(204, 37, 37);">
<rect width="100" height="100"/>
</g></g><g transform="translate(156,273) scale(0.13,0.13)"><g transform="" style="fill: rgb(204, 37, 37);">
<rect width="100" height="100"/>
</g></g><g transform="translate(169,273) scale(0.13,0.13)"><g transform="" style="fill: rgb(204, 37, 37);">
<rect width="100" height="100"/>
</g></g><g transform="translate(195,273) scale(0.13,0.13)"><g transform="" style="fill: rgb(204, 37, 37);">
<rect width="100" height="100"/>
</g></g><g transform="translate(208,273) scale(0.13,0.13)"><g transform="" style="fill: rgb(204, 37, 37);">
<rect width="100" height="100"/>
</g></g><g transform="translate(221,273) scale(0.13,0.13)"><g transform="" style="fill: rgb(204, 37, 37);">
<rect width="100" height="100"/>
</g></g><g transform="translate(234,273) scale(0.13,0.13)"><g transform="" style="fill: rgb(204, 37, 37);">
<rect width="100" height="100"/>
</g></g><g transform="translate(299,273) scale(0.13,0.13)"><g transform="" style="fill: rgb(204, 37, 37);">
<rect width="100" height="100"/>
</g></g><g transform="translate(312,273) scale(0.13,0.13)"><g transform="" style="fill: rgb(204, 37, 37);">
<rect width="100" height="100"/>
</g></g><g transform="translate(117,286) scale(0.13,0.13)"><g transform="" style="fill: rgb(204, 37, 37);">
<rect width="100" height="100"/>
</g></g><g transform="translate(130,286) scale(0.13,0.13)"><g transform="" style="fill: rgb(204, 37, 37);">
<rect width="100" height="100"/>
</g></g><g transform="translate(143,286) scale(0.13,0.13)"><g transform="" style="fill: rgb(204, 37, 37);">
<rect width="100" height="100"/>
</g></g><g transform="translate(169,286) scale(0.13,0.13)"><g transform="" style="fill: rgb(204, 37, 37);">
<rect width="100" height="100"/>
</g></g><g transform="translate(182,286) scale(0.13,0.13)"><g transform="" style="fill: rgb(204, 37, 37);">
<rect width="100" height="100"/>
</g></g><g transform="translate(260,286) scale(0.13,0.13)"><g transform="" style="fill: rgb(204, 37, 37);">
<rect width="100" height="100"/>
</g></g><g transform="translate(273,286) scale(0.13,0.13)"><g transform="" style="fill: rgb(204, 37, 37);">
<rect width="100" height="100"/>
</g></g><g transform="translate(286,286) scale(0.13,0.13)"><g transform="" style="fill: rgb(204, 37, 37);">
<rect width="100" height="100"/>
</g></g><g transform="translate(299,286) scale(0.13,0.13)"><g transform="" style="fill: rgb(204, 37, 37);">
<rect width="100" height="100"/>
</g></g><g transform="translate(312,286) scale(0.13,0.13)"><g transform="" style="fill: rgb(204, 37, 37);">
<rect width="100" height="100"/>
</g></g><g transform="translate(130,299) scale(0.13,0.13)"><g transform="" style="fill: rgb(204, 37, 37);">
<rect width="100" height="100"/>
</g></g><g transform="translate(143,299) scale(0.13,0.13)"><g transform="" style="fill: rgb(204, 37, 37);">
<rect width="100" height="100"/>
</g></g><g transform="translate(156,299) scale(0.13,0.13)"><g transform="" style="fill: rgb(204, 37, 37);">
<rect width="100" height="100"/>
</g></g><g transform="translate(195,299) scale(0.13,0.13)"><g transform="" style="fill: rgb(204, 37, 37);">
<rect width="100" height="100"/>
</g></g><g transform="translate(234,299) scale(0.13,0.13)"><g transform="" style="fill: rgb(204, 37, 37);">
<rect width="100" height="100"/>
</g></g><g transform="translate(247,299) scale(0.13,0.13)"><g transform="" style="fill: rgb(204, 37, 37);">
<rect width="100" height="100"/>
</g></g><g transform="translate(260,299) scale(0.13,0.13)"><g transform="" style="fill: rgb(204, 37, 37);">
<rect width="100" height="100"/>
</g></g><g transform="translate(286,299) scale(0.13,0.13)"><g transform="" style="fill: rgb(204, 37, 37);">
<rect width="100" height="100"/>
</g></g><g transform="translate(299,299) scale(0.13,0.13)"><g transform="" style="fill: rgb(204, 37, 37);">
<rect width="100" height="100"/>
</g></g><g transform="translate(312,299) scale(0.13,0.13)"><g transform="" style="fill: rgb(204, 37, 37);">
<rect width="100" height="100"/>
</g></g><g transform="translate(104,312) scale(0.13,0.13)"><g transform="" style="fill: rgb(204, 37, 37);">
<rect width="100" height="100"/>
</g></g><g transform="translate(156,312) scale(0.13,0.13)"><g transform="" style="fill: rgb(204, 37, 37);">
<rect width="100" height="100"/>
</g></g><g transform="translate(208,312) scale(0.13,0.13)"><g transform="" style="fill: rgb(204, 37, 37);">
<rect width="100" height="100"/>
</g></g><g transform="translate(221,312) scale(0.13,0.13)"><g transform="" style="fill: rgb(204, 37, 37);">
<rect width="100" height="100"/>
</g></g><g transform="translate(234,312) scale(0.13,0.13)"><g transform="" style="fill: rgb(204, 37, 37);">
<rect width="100" height="100"/>
</g></g><g transform="translate(273,312) scale(0.13,0.13)"><g transform="" style="fill: rgb(204, 37, 37);">
<rect width="100" height="100"/>
</g></g><g transform="translate(312,312) scale(0.13,0.13)"><g transform="" style="fill: rgb(204, 37, 37);">
<rect width="100" height="100"/>
</g></g><g transform="translate(0,0) scale(0.91, 0.91)"><g transform="" style="fill: rgb(204, 37, 37);">
<g>
	<rect x="15" y="15" style="fill:none;" width="70" height="70"/>
	<path d="M85,0H15H0v15v70v15h15h70h15V85V15V0H85z M85,85H15V15h70V85z"/>
</g>
</g></g><g transform="translate(234,0) scale(0.91, 0.91)"><g transform="" style="fill: rgb(204, 37, 37);">
<g>
	<rect x="15" y="15" style="fill:none;" width="70" height="70"/>
	<path d="M85,0H15H0v15v70v15h15h70h15V85V15V0H85z M85,85H15V15h70V85z"/>
</g>
</g></g><g transform="translate(0,234) scale(0.91, 0.91)"><g transform="" style="fill: rgb(204, 37, 37);">
<g>
	<rect x="15" y="15" style="fill:none;" width="70" height="70"/>
	<path d="M85,0H15H0v15v70v15h15h70h15V85V15V0H85z M85,85H15V15h70V85z"/>
</g>
</g></g><g transform="translate(26,26) scale(0.39, 0.39)"><g transform="" style="fill: rgb(204, 37, 37);">
<rect width="100" height="100"/>
</g></g><g transform="translate(260,26) scale(0.39, 0.39)"><g transform="" style="fill: rgb(204, 37, 37);">
<rect width="100" height="100"/>
</g></g><g transform="translate(26,260) scale(0.39, 0.39)"><g transform="" style="fill: rgb(204, 37, 37);">
<rect width="100" height="100"/>
</g></g></g></svg>