<?xml version="1.0" encoding="UTF-8"?>
<svg xmlns="http://www.w3.org/2000/svg" version="1.1" width="300" height="300" viewBox="0 0 300 300"><rect x="0" y="0" width="300" height="300" fill="#ffffff"/><g transform="scale(12)"><g transform="translate(0,0)"><g><g transform="translate(3.5,3.5)"><path fill-rule="evenodd" d="M-3.5 -3.5L3.5 -3.5L3.5 3.5L-3.5 3.5ZM-2.5 -2.5L-2.5 2.5L2.5 2.5L2.5 -2.5Z" fill="#000000"/><path fill-rule="evenodd" d="M-1.5 -1.5L1.5 -1.5L1.5 1.5L-1.5 1.5Z" fill="#000000"/></g></g><g><g transform="translate(21.5,3.5)"><g transform="rotate(90)"><path fill-rule="evenodd" d="M-3.5 -3.5L3.5 -3.5L3.5 3.5L-3.5 3.5ZM-2.5 -2.5L-2.5 2.5L2.5 2.5L2.5 -2.5Z" fill="#000000"/><path fill-rule="evenodd" d="M-1.5 -1.5L1.5 -1.5L1.5 1.5L-1.5 1.5Z" fill="#000000"/></g></g></g><g><g transform="translate(3.5,21.5)"><g transform="rotate(-90)"><path fill-rule="evenodd" d="M-3.5 -3.5L3.5 -3.5L3.5 3.5L-3.5 3.5ZM-2.5 -2.5L-2.5 2.5L2.5 2.5L2.5 -2.5Z" fill="#000000"/><path fill-rule="evenodd" d="M-1.5 -1.5L1.5 -1.5L1.5 1.5L-1.5 1.5Z" fill="#000000"/></g></g></g><defs><linearGradient gradientUnits="userSpaceOnUse" x1="0" y1="0" x2="0" y2="25" id="g1"><stop offset="0%" stop-color="#000000"/><stop offset="100%" stop-color="#000000"/></linearGradient></defs><path fill-rule="evenodd" d="M8 0L8 1L9 1L9 2L8 2L8 5L9 5L9 4L14 4L14 5L12 5L12 8L13 8L13 6L14 6L14 7L15 7L15 6L14 6L14 5L17 5L17 2L15 2L15 1L14 1L14 0L12 0L12 1L9 1L9 0ZM16 0L16 1L17 1L17 0ZM13 1L13 2L14 2L14 3L15 3L15 2L14 2L14 1ZM10 5L10 10L9 10L9 8L8 8L8 10L5 10L5 9L4 9L4 8L0 8L0 9L1 9L1 10L2 10L2 11L1 11L1 13L2 13L2 14L1 14L1 15L0 15L0 16L1 16L1 15L3 15L3 16L4 16L4 17L5 17L5 16L6 16L6 17L7 17L7 16L6 16L6 15L8 15L8 14L9 14L9 17L8 17L8 18L9 18L9 17L10 17L10 19L9 19L9 21L8 21L8 25L11 25L11 24L9 24L9 22L10 22L10 19L11 19L11 18L12 18L12 20L11 20L11 23L12 23L12 24L13 24L13 25L15 25L15 24L14 24L14 22L13 22L13 21L12 21L12 20L13 20L13 19L15 19L15 20L14 20L14 21L15 21L15 23L16 23L16 21L17 21L17 25L18 25L18 24L19 24L19 25L25 25L25 24L23 24L23 23L24 23L24 22L25 22L25 20L23 20L23 21L22 21L22 20L21 20L21 17L22 17L22 19L25 19L25 15L24 15L24 14L25 14L25 12L23 12L23 11L21 11L21 10L20 10L20 9L23 9L23 10L24 10L24 9L25 9L25 8L24 8L24 9L23 9L23 8L20 8L20 9L19 9L19 11L18 11L18 8L16 8L16 10L17 10L17 11L18 11L18 12L17 12L17 14L20 14L20 15L19 15L19 16L18 16L18 15L14 15L14 16L13 16L13 17L11 17L11 16L12 16L12 15L13 15L13 13L15 13L15 14L16 14L16 13L15 13L15 12L16 12L16 11L13 11L13 13L12 13L12 15L11 15L11 14L10 14L10 13L11 13L11 12L12 12L12 9L11 9L11 5ZM8 6L8 7L9 7L9 6ZM16 6L16 7L17 7L17 6ZM6 8L6 9L7 9L7 8ZM14 8L14 9L13 9L13 10L14 10L14 9L15 9L15 8ZM3 10L3 11L2 11L2 13L3 13L3 15L4 15L4 14L5 14L5 15L6 15L6 14L8 14L8 13L9 13L9 10L8 10L8 13L5 13L5 12L4 12L4 13L3 13L3 11L4 11L4 10ZM6 11L6 12L7 12L7 11ZM20 11L20 12L21 12L21 16L24 16L24 15L22 15L22 14L24 14L24 13L22 13L22 12L21 12L21 11ZM14 16L14 17L13 17L13 18L15 18L15 19L16 19L16 16ZM17 17L17 20L20 20L20 17ZM23 17L23 18L24 18L24 17ZM18 18L18 19L19 19L19 18ZM15 20L15 21L16 21L16 20ZM19 21L19 24L20 24L20 21ZM12 22L12 23L13 23L13 22ZM21 22L21 24L22 24L22 22Z" fill="url(#g1)"/></g></g></svg>
