<?xml version="1.0" encoding="utf-8"?>
<!DOCTYPE svg PUBLIC "-//W3C//DTD SVG 1.1//EN" "http://www.w3.org/Graphics/SVG/1.1/DTD/svg11.dtd">
<svg version="1.1" id="Layer_1" xmlns="http://www.w3.org/2000/svg" xmlns:xlink="http://www.w3.org/1999/xlink" x="0px" y="0px"
width="558px" height="558px" viewBox="0 0 558 558" enable-background="new 0 0 558 558" xml:space="preserve">
<rect x="0" y="0" width="558" height="558" fill="rgb(255,255,255)" /><g transform="translate(18,18)"><g transform="translate(162,0) scale(0.037,0.037)"><g transform="" style="fill: rgb(17, 49, 81);">
<path d="M250,0c138.077,0,250,111.93,250,250c0,138.077-111.923,250-250,250C111.93,500,0,388.077,0,250C0,111.93,111.93,0,250,0z"
	/>
</g></g><g transform="translate(216,0) scale(0.037,0.037)"><g transform="" style="fill: rgb(17, 49, 81);">
<path d="M250,0c58.27,0,250,0,250,0s0,170.182,0,250c0,62.305,0,250,0,250s-174.219,0-250,0
	C111.881,500,0,388.021,0,250C0,111.963,111.881,0,250,0z"/>
</g></g><g transform="translate(234,0) scale(0.037,0.037)"><g transform="" style="fill: rgb(17, 49, 81);">
<path d="M250,500c-58.271,0-250,0-250,0s0-170.207,0-250C0,187.676,0,0,0,0s174.261,0,250,0c138.064,0,250,111.929,250,250
	C500,388.064,388.064,500,250,500z"/>
</g></g><g transform="translate(288,0) scale(0.037,0.037)"><g transform="" style="fill: rgb(17, 49, 81);">
<path d="M500,250c0,58.266,0,250,0,250s-170.194,0-250-0.012c-62.324,0.012-250,0-250,0s0-174.241,0-249.994
	C0.006,111.931,111.929,0,249.994,0C388.064,0,500,111.93,500,250z"/>
</g></g><g transform="translate(324,0) scale(0.037,0.037)"><g transform="" style="fill: rgb(17, 49, 81);">
<g>
	<path d="M0,500h500V0C223.861,0.001,0,223.854,0,500z"/>
</g>
</g></g><g transform="translate(342,0) scale(0.037,0.037)"><g transform="" style="fill: rgb(17, 49, 81);">
<g>
	<path d="M0,0v500h500C500,223.853,276.142,0,0,0z"/>
</g>
</g></g><g transform="translate(144,18) scale(0.037,0.037)"><g transform="" style="fill: rgb(17, 49, 81);">
<path d="M250,0c138.077,0,250,111.93,250,250c0,138.077-111.923,250-250,250C111.93,500,0,388.077,0,250C0,111.93,111.93,0,250,0z"
	/>
</g></g><g transform="translate(198,18) scale(0.037,0.037)"><g transform="" style="fill: rgb(17, 49, 81);">
<path d="M250,0c138.077,0,250,111.93,250,250c0,138.077-111.923,250-250,250C111.93,500,0,388.077,0,250C0,111.93,111.93,0,250,0z"
	/>
</g></g><g transform="translate(252,18) scale(0.037,0.037)"><g transform="" style="fill: rgb(17, 49, 81);">
<g>
	<path d="M0,500h500V0C223.861,0.001,0,223.854,0,500z"/>
</g>
</g></g><g transform="translate(270,18) scale(0.185,0.185)"><g transform="" style="fill: rgb(17, 49, 81);">
<rect width="100" height="100"/>
</g></g><g transform="translate(288,18) scale(0.185,0.185)"><g transform="" style="fill: rgb(17, 49, 81);">
<rect width="100" height="100"/>
</g></g><g transform="translate(306,18) scale(0.185,0.185)"><g transform="" style="fill: rgb(17, 49, 81);">
<rect width="100" height="100"/>
</g></g><g transform="translate(324,18) scale(0.185,0.185)"><g transform="" style="fill: rgb(17, 49, 81);">
<rect width="100" height="100"/>
</g></g><g transform="translate(342,18) scale(0.185,0.185)"><g transform="" style="fill: rgb(17, 49, 81);">
<rect width="100" height="100"/>
</g></g><g transform="translate(360,18) scale(0.037,0.037)"><g transform="" style="fill: rgb(17, 49, 81);">
<g>
	<path d="M0,0v500h500C500,223.853,276.142,0,0,0z"/>
</g>
</g></g><g transform="translate(162,36) scale(0.037,0.037)"><g transform="" style="fill: rgb(17, 49, 81);">
<path d="M500,250c0,58.266,0,250,0,250s-170.194,0-250-0.012c-62.324,0.012-250,0-250,0s0-174.241,0-249.994
	C0.006,111.931,111.929,0,249.994,0C388.064,0,500,111.93,500,250z"/>
</g></g><g transform="translate(216,36) scale(0.037,0.037)"><g transform="" style="fill: rgb(17, 49, 81);">
<g>
	<path d="M0,500h500V0C223.861,0.001,0,223.854,0,500z"/>
</g>
</g></g><g transform="translate(234,36) scale(0.185,0.185)"><g transform="" style="fill: rgb(17, 49, 81);">
<rect width="100" height="100"/>
</g></g><g transform="translate(252,36) scale(0.185,0.185)"><g transform="" style="fill: rgb(17, 49, 81);">
<rect width="100" height="100"/>
</g></g><g transform="translate(288,36) scale(0.037,0.037)"><g transform="" style="fill: rgb(17, 49, 81);">
<path d="M0,250C0,191.729,0,0,0,0s170.201,0,250,0c62.324,0,250,0,250,0s0,174.261,0,250c0,138.064-111.936,250-250,250
	C111.929,500,0,388.064,0,250z"/>
</g></g><g transform="translate(342,36) scale(0.037,0.037)"><g transform="" style="fill: rgb(17, 49, 81);">
<g>
	<path d="M500,500V0H0C0.001,276.142,223.853,500,500,500z"/>
</g>
</g></g><g transform="translate(360,36) scale(0.037,0.037)"><g transform="" style="fill: rgb(17, 49, 81);">
<g>
	<path d="M500,0H0v500C276.142,500,500,276.142,500,0z"/>
</g>
</g></g><g transform="translate(162,54) scale(0.037,0.037)"><g transform="" style="fill: rgb(17, 49, 81);">
<g>
	<path d="M500,500V0H0C0.001,276.142,223.853,500,500,500z"/>
</g>
</g></g><g transform="translate(180,54) scale(0.037,0.037)"><g transform="" style="fill: rgb(17, 49, 81);">
<g>
	<path d="M0,0v500h500C500,223.853,276.142,0,0,0z"/>
</g>
</g></g><g transform="translate(216,54) scale(0.185,0.185)"><g transform="" style="fill: rgb(17, 49, 81);">
<rect width="100" height="100"/>
</g></g><g transform="translate(234,54) scale(0.185,0.185)"><g transform="" style="fill: rgb(17, 49, 81);">
<rect width="100" height="100"/>
</g></g><g transform="translate(252,54) scale(0.185,0.185)"><g transform="" style="fill: rgb(17, 49, 81);">
<rect width="100" height="100"/>
</g></g><g transform="translate(270,54) scale(0.037,0.037)"><g transform="" style="fill: rgb(17, 49, 81);">
<path d="M250,500c-58.271,0-250,0-250,0s0-170.207,0-250C0,187.676,0,0,0,0s174.261,0,250,0c138.064,0,250,111.929,250,250
	C500,388.064,388.064,500,250,500z"/>
</g></g><g transform="translate(324,54) scale(0.037,0.037)"><g transform="" style="fill: rgb(17, 49, 81);">
<path d="M250,0c138.077,0,250,111.93,250,250c0,138.077-111.923,250-250,250C111.93,500,0,388.077,0,250C0,111.93,111.93,0,250,0z"
	/>
</g></g><g transform="translate(144,72) scale(0.037,0.037)"><g transform="" style="fill: rgb(17, 49, 81);">
<path d="M250,0c138.077,0,250,111.93,250,250c0,138.077-111.923,250-250,250C111.93,500,0,388.077,0,250C0,111.93,111.93,0,250,0z"
	/>
</g></g><g transform="translate(180,72) scale(0.185,0.185)"><g transform="" style="fill: rgb(17, 49, 81);">
<rect width="100" height="100"/>
</g></g><g transform="translate(216,72) scale(0.185,0.185)"><g transform="" style="fill: rgb(17, 49, 81);">
<rect width="100" height="100"/>
</g></g><g transform="translate(252,72) scale(0.037,0.037)"><g transform="" style="fill: rgb(17, 49, 81);">
<path d="M0,250C0,191.729,0,0,0,0s170.201,0,250,0c62.324,0,250,0,250,0s0,174.261,0,250c0,138.064-111.936,250-250,250
	C111.929,500,0,388.064,0,250z"/>
</g></g><g transform="translate(306,72) scale(0.037,0.037)"><g transform="" style="fill: rgb(17, 49, 81);">
<path d="M500,250c0,58.266,0,250,0,250s-170.194,0-250-0.012c-62.324,0.012-250,0-250,0s0-174.241,0-249.994
	C0.006,111.931,111.929,0,249.994,0C388.064,0,500,111.93,500,250z"/>
</g></g><g transform="translate(342,72) scale(0.037,0.037)"><g transform="" style="fill: rgb(17, 49, 81);">
<path d="M500,250c0,58.266,0,250,0,250s-170.194,0-250-0.012c-62.324,0.012-250,0-250,0s0-174.241,0-249.994
	C0.006,111.931,111.929,0,249.994,0C388.064,0,500,111.93,500,250z"/>
</g></g><g transform="translate(180,90) scale(0.185,0.185)"><g transform="" style="fill: rgb(17, 49, 81);">
<rect width="100" height="100"/>
</g></g><g transform="translate(216,90) scale(0.185,0.185)"><g transform="" style="fill: rgb(17, 49, 81);">
<rect width="100" height="100"/>
</g></g><g transform="translate(234,90) scale(0.037,0.037)"><g transform="" style="fill: rgb(17, 49, 81);">
<path d="M250,500c-58.271,0-250,0-250,0s0-170.207,0-250C0,187.676,0,0,0,0s174.261,0,250,0c138.064,0,250,111.929,250,250
	C500,388.064,388.064,500,250,500z"/>
</g></g><g transform="translate(306,90) scale(0.037,0.037)"><g transform="" style="fill: rgb(17, 49, 81);">
<path d="M0,250C0,191.729,0,0,0,0s170.201,0,250,0c62.324,0,250,0,250,0s0,174.261,0,250c0,138.064-111.936,250-250,250
	C111.929,500,0,388.064,0,250z"/>
</g></g><g transform="translate(342,90) scale(0.037,0.037)"><g transform="" style="fill: rgb(17, 49, 81);">
<path d="M0,250C0,191.729,0,0,0,0s170.201,0,250,0c62.324,0,250,0,250,0s0,174.261,0,250c0,138.064-111.936,250-250,250
	C111.929,500,0,388.064,0,250z"/>
</g></g><g transform="translate(144,108) scale(0.037,0.037)"><g transform="" style="fill: rgb(17, 49, 81);">
<path d="M250,0c138.077,0,250,111.93,250,250c0,138.077-111.923,250-250,250C111.93,500,0,388.077,0,250C0,111.93,111.93,0,250,0z"
	/>
</g></g><g transform="translate(180,108) scale(0.185,0.185)"><g transform="" style="fill: rgb(17, 49, 81);">
<rect width="100" height="100"/>
</g></g><g transform="translate(216,108) scale(0.185,0.185)"><g transform="" style="fill: rgb(17, 49, 81);">
<rect width="100" height="100"/>
</g></g><g transform="translate(252,108) scale(0.037,0.037)"><g transform="" style="fill: rgb(17, 49, 81);">
<path d="M500,250c0,58.266,0,250,0,250s-170.194,0-250-0.012c-62.324,0.012-250,0-250,0s0-174.241,0-249.994
	C0.006,111.931,111.929,0,249.994,0C388.064,0,500,111.93,500,250z"/>
</g></g><g transform="translate(288,108) scale(0.037,0.037)"><g transform="" style="fill: rgb(17, 49, 81);">
<path d="M500,250c0,58.266,0,250,0,250s-170.194,0-250-0.012c-62.324,0.012-250,0-250,0s0-174.241,0-249.994
	C0.006,111.931,111.929,0,249.994,0C388.064,0,500,111.93,500,250z"/>
</g></g><g transform="translate(324,108) scale(0.037,0.037)"><g transform="" style="fill: rgb(17, 49, 81);">
<path d="M500,250c0,58.266,0,250,0,250s-170.194,0-250-0.012c-62.324,0.012-250,0-250,0s0-174.241,0-249.994
	C0.006,111.931,111.929,0,249.994,0C388.064,0,500,111.93,500,250z"/>
</g></g><g transform="translate(360,108) scale(0.037,0.037)"><g transform="" style="fill: rgb(17, 49, 81);">
<path d="M500,250c0,58.266,0,250,0,250s-170.194,0-250-0.012c-62.324,0.012-250,0-250,0s0-174.241,0-249.994
	C0.006,111.931,111.929,0,249.994,0C388.064,0,500,111.93,500,250z"/>
</g></g><g transform="translate(180,126) scale(0.037,0.037)"><g transform="" style="fill: rgb(17, 49, 81);">
<path d="M0,250C0,191.729,0,0,0,0s170.201,0,250,0c62.324,0,250,0,250,0s0,174.261,0,250c0,138.064-111.936,250-250,250
	C111.929,500,0,388.064,0,250z"/>
</g></g><g transform="translate(216,126) scale(0.185,0.185)"><g transform="" style="fill: rgb(17, 49, 81);">
<rect width="100" height="100"/>
</g></g><g transform="translate(234,126) scale(0.185,0.185)"><g transform="" style="fill: rgb(17, 49, 81);">
<rect width="100" height="100"/>
</g></g><g transform="translate(252,126) scale(0.185,0.185)"><g transform="" style="fill: rgb(17, 49, 81);">
<rect width="100" height="100"/>
</g></g><g transform="translate(288,126) scale(0.037,0.037)"><g transform="" style="fill: rgb(17, 49, 81);">
<g>
	<path d="M500,500V0H0C0.001,276.142,223.853,500,500,500z"/>
</g>
</g></g><g transform="translate(306,126) scale(0.185,0.185)"><g transform="" style="fill: rgb(17, 49, 81);">
<rect width="100" height="100"/>
</g></g><g transform="translate(324,126) scale(0.185,0.185)"><g transform="" style="fill: rgb(17, 49, 81);">
<rect width="100" height="100"/>
</g></g><g transform="translate(360,126) scale(0.185,0.185)"><g transform="" style="fill: rgb(17, 49, 81);">
<rect width="100" height="100"/>
</g></g><g transform="translate(0,144) scale(0.037,0.037)"><g transform="" style="fill: rgb(17, 49, 81);">
<path d="M500,250c0,58.266,0,250,0,250s-170.194,0-250-0.012c-62.324,0.012-250,0-250,0s0-174.241,0-249.994
	C0.006,111.931,111.929,0,249.994,0C388.064,0,500,111.93,500,250z"/>
</g></g><g transform="translate(36,144) scale(0.037,0.037)"><g transform="" style="fill: rgb(17, 49, 81);">
<path d="M500,250c0,58.266,0,250,0,250s-170.194,0-250-0.012c-62.324,0.012-250,0-250,0s0-174.241,0-249.994
	C0.006,111.931,111.929,0,249.994,0C388.064,0,500,111.93,500,250z"/>
</g></g><g transform="translate(72,144) scale(0.037,0.037)"><g transform="" style="fill: rgb(17, 49, 81);">
<path d="M500,250c0,58.266,0,250,0,250s-170.194,0-250-0.012c-62.324,0.012-250,0-250,0s0-174.241,0-249.994
	C0.006,111.931,111.929,0,249.994,0C388.064,0,500,111.93,500,250z"/>
</g></g><g transform="translate(108,144) scale(0.037,0.037)"><g transform="" style="fill: rgb(17, 49, 81);">
<path d="M250,0c138.077,0,250,111.93,250,250c0,138.077-111.923,250-250,250C111.93,500,0,388.077,0,250C0,111.93,111.93,0,250,0z"
	/>
</g></g><g transform="translate(162,144) scale(0.037,0.037)"><g transform="" style="fill: rgb(17, 49, 81);">
<path d="M500,250c0,58.266,0,250,0,250s-170.194,0-250-0.012c-62.324,0.012-250,0-250,0s0-174.241,0-249.994
	C0.006,111.931,111.929,0,249.994,0C388.064,0,500,111.93,500,250z"/>
</g></g><g transform="translate(216,144) scale(0.037,0.037)"><g transform="" style="fill: rgb(17, 49, 81);">
<path d="M0,250C0,191.729,0,0,0,0s170.201,0,250,0c62.324,0,250,0,250,0s0,174.261,0,250c0,138.064-111.936,250-250,250
	C111.929,500,0,388.064,0,250z"/>
</g></g><g transform="translate(252,144) scale(0.185,0.185)"><g transform="" style="fill: rgb(17, 49, 81);">
<rect width="100" height="100"/>
</g></g><g transform="translate(270,144) scale(0.037,0.037)"><g transform="" style="fill: rgb(17, 49, 81);">
<g>
	<path d="M0,0v500h500C500,223.853,276.142,0,0,0z"/>
</g>
</g></g><g transform="translate(306,144) scale(0.037,0.037)"><g transform="" style="fill: rgb(17, 49, 81);">
<g>
	<path d="M500,500V0H0C0.001,276.142,223.853,500,500,500z"/>
</g>
</g></g><g transform="translate(324,144) scale(0.185,0.185)"><g transform="" style="fill: rgb(17, 49, 81);">
<rect width="100" height="100"/>
</g></g><g transform="translate(342,144) scale(0.185,0.185)"><g transform="" style="fill: rgb(17, 49, 81);">
<rect width="100" height="100"/>
</g></g><g transform="translate(360,144) scale(0.185,0.185)"><g transform="" style="fill: rgb(17, 49, 81);">
<rect width="100" height="100"/>
</g></g><g transform="translate(432,144) scale(0.037,0.037)"><g transform="" style="fill: rgb(17, 49, 81);">
<path d="M250,0c138.077,0,250,111.93,250,250c0,138.077-111.923,250-250,250C111.93,500,0,388.077,0,250C0,111.93,111.93,0,250,0z"
	/>
</g></g><g transform="translate(486,144) scale(0.037,0.037)"><g transform="" style="fill: rgb(17, 49, 81);">
<path d="M250,0c138.077,0,250,111.93,250,250c0,138.077-111.923,250-250,250C111.93,500,0,388.077,0,250C0,111.93,111.93,0,250,0z"
	/>
</g></g><g transform="translate(0,162) scale(0.037,0.037)"><g transform="" style="fill: rgb(17, 49, 81);">
<path d="M0,250C0,191.729,0,0,0,0s170.201,0,250,0c62.324,0,250,0,250,0s0,174.261,0,250c0,138.064-111.936,250-250,250
	C111.929,500,0,388.064,0,250z"/>
</g></g><g transform="translate(36,162) scale(0.185,0.185)"><g transform="" style="fill: rgb(17, 49, 81);">
<rect width="100" height="100"/>
</g></g><g transform="translate(72,162) scale(0.037,0.037)"><g transform="" style="fill: rgb(17, 49, 81);">
<path d="M0,250C0,191.729,0,0,0,0s170.201,0,250,0c62.324,0,250,0,250,0s0,174.261,0,250c0,138.064-111.936,250-250,250
	C111.929,500,0,388.064,0,250z"/>
</g></g><g transform="translate(144,162) scale(0.037,0.037)"><g transform="" style="fill: rgb(17, 49, 81);">
<g>
	<path d="M0,500h500V0C223.861,0.001,0,223.854,0,500z"/>
</g>
</g></g><g transform="translate(162,162) scale(0.185,0.185)"><g transform="" style="fill: rgb(17, 49, 81);">
<rect width="100" height="100"/>
</g></g><g transform="translate(198,162) scale(0.037,0.037)"><g transform="" style="fill: rgb(17, 49, 81);">
<path d="M500,250c0,58.266,0,250,0,250s-170.194,0-250-0.012c-62.324,0.012-250,0-250,0s0-174.241,0-249.994
	C0.006,111.931,111.929,0,249.994,0C388.064,0,500,111.93,500,250z"/>
</g></g><g transform="translate(252,162) scale(0.037,0.037)"><g transform="" style="fill: rgb(17, 49, 81);">
<g>
	<path d="M500,500V0H0C0.001,276.142,223.853,500,500,500z"/>
</g>
</g></g><g transform="translate(270,162) scale(0.037,0.037)"><g transform="" style="fill: rgb(17, 49, 81);">
<g>
	<path d="M500,0H0v500C276.142,500,500,276.142,500,0z"/>
</g>
</g></g><g transform="translate(360,162) scale(0.037,0.037)"><g transform="" style="fill: rgb(17, 49, 81);">
<path d="M0,250C0,191.729,0,0,0,0s170.201,0,250,0c62.324,0,250,0,250,0s0,174.261,0,250c0,138.064-111.936,250-250,250
	C111.929,500,0,388.064,0,250z"/>
</g></g><g transform="translate(396,162) scale(0.037,0.037)"><g transform="" style="fill: rgb(17, 49, 81);">
<path d="M500,250c0,58.266,0,250,0,250s-170.194,0-250-0.012c-62.324,0.012-250,0-250,0s0-174.241,0-249.994
	C0.006,111.931,111.929,0,249.994,0C388.064,0,500,111.93,500,250z"/>
</g></g><g transform="translate(450,162) scale(0.037,0.037)"><g transform="" style="fill: rgb(17, 49, 81);">
<path d="M250,0c138.077,0,250,111.93,250,250c0,138.077-111.923,250-250,250C111.93,500,0,388.077,0,250C0,111.93,111.93,0,250,0z"
	/>
</g></g><g transform="translate(504,162) scale(0.037,0.037)"><g transform="" style="fill: rgb(17, 49, 81);">
<path d="M500,250c0,58.266,0,250,0,250s-170.194,0-250-0.012c-62.324,0.012-250,0-250,0s0-174.241,0-249.994
	C0.006,111.931,111.929,0,249.994,0C388.064,0,500,111.93,500,250z"/>
</g></g><g transform="translate(18,180) scale(0.037,0.037)"><g transform="" style="fill: rgb(17, 49, 81);">
<path d="M250,0c58.27,0,250,0,250,0s0,170.182,0,250c0,62.305,0,250,0,250s-174.219,0-250,0
	C111.881,500,0,388.021,0,250C0,111.963,111.881,0,250,0z"/>
</g></g><g transform="translate(36,180) scale(0.037,0.037)"><g transform="" style="fill: rgb(17, 49, 81);">
<g>
	<path d="M500,0H0v500C276.142,500,500,276.142,500,0z"/>
</g>
</g></g><g transform="translate(90,180) scale(0.037,0.037)"><g transform="" style="fill: rgb(17, 49, 81);">
<g>
	<path d="M0,500h500V0C223.861,0.001,0,223.854,0,500z"/>
</g>
</g></g><g transform="translate(108,180) scale(0.185,0.185)"><g transform="" style="fill: rgb(17, 49, 81);">
<rect width="100" height="100"/>
</g></g><g transform="translate(126,180) scale(0.185,0.185)"><g transform="" style="fill: rgb(17, 49, 81);">
<rect width="100" height="100"/>
</g></g><g transform="translate(144,180) scale(0.185,0.185)"><g transform="" style="fill: rgb(17, 49, 81);">
<rect width="100" height="100"/>
</g></g><g transform="translate(162,180) scale(0.185,0.185)"><g transform="" style="fill: rgb(17, 49, 81);">
<rect width="100" height="100"/>
</g></g><g transform="translate(180,180) scale(0.185,0.185)"><g transform="" style="fill: rgb(17, 49, 81);">
<rect width="100" height="100"/>
</g></g><g transform="translate(198,180) scale(0.037,0.037)"><g transform="" style="fill: rgb(17, 49, 81);">
<g>
	<path d="M500,0H0v500C276.142,500,500,276.142,500,0z"/>
</g>
</g></g><g transform="translate(234,180) scale(0.037,0.037)"><g transform="" style="fill: rgb(17, 49, 81);">
<path d="M250,0c138.077,0,250,111.93,250,250c0,138.077-111.923,250-250,250C111.93,500,0,388.077,0,250C0,111.93,111.93,0,250,0z"
	/>
</g></g><g transform="translate(306,180) scale(0.037,0.037)"><g transform="" style="fill: rgb(17, 49, 81);">
<path d="M500,250c0,58.266,0,250,0,250s-170.194,0-250-0.012c-62.324,0.012-250,0-250,0s0-174.241,0-249.994
	C0.006,111.931,111.929,0,249.994,0C388.064,0,500,111.93,500,250z"/>
</g></g><g transform="translate(396,180) scale(0.185,0.185)"><g transform="" style="fill: rgb(17, 49, 81);">
<rect width="100" height="100"/>
</g></g><g transform="translate(414,180) scale(0.185,0.185)"><g transform="" style="fill: rgb(17, 49, 81);">
<rect width="100" height="100"/>
</g></g><g transform="translate(432,180) scale(0.037,0.037)"><g transform="" style="fill: rgb(17, 49, 81);">
<path d="M250,500c-58.271,0-250,0-250,0s0-170.207,0-250C0,187.676,0,0,0,0s174.261,0,250,0c138.064,0,250,111.929,250,250
	C500,388.064,388.064,500,250,500z"/>
</g></g><g transform="translate(468,180) scale(0.037,0.037)"><g transform="" style="fill: rgb(17, 49, 81);">
<path d="M250,0c58.27,0,250,0,250,0s0,170.182,0,250c0,62.305,0,250,0,250s-174.219,0-250,0
	C111.881,500,0,388.021,0,250C0,111.963,111.881,0,250,0z"/>
</g></g><g transform="translate(486,180) scale(0.185,0.185)"><g transform="" style="fill: rgb(17, 49, 81);">
<rect width="100" height="100"/>
</g></g><g transform="translate(504,180) scale(0.037,0.037)"><g transform="" style="fill: rgb(17, 49, 81);">
<g>
	<path d="M500,0H0v500C276.142,500,500,276.142,500,0z"/>
</g>
</g></g><g transform="translate(72,198) scale(0.037,0.037)"><g transform="" style="fill: rgb(17, 49, 81);">
<path d="M250,0c58.27,0,250,0,250,0s0,170.182,0,250c0,62.305,0,250,0,250s-174.219,0-250,0
	C111.881,500,0,388.021,0,250C0,111.963,111.881,0,250,0z"/>
</g></g><g transform="translate(90,198) scale(0.037,0.037)"><g transform="" style="fill: rgb(17, 49, 81);">
<g>
	<path d="M500,0H0v500C276.142,500,500,276.142,500,0z"/>
</g>
</g></g><g transform="translate(126,198) scale(0.037,0.037)"><g transform="" style="fill: rgb(17, 49, 81);">
<path d="M0,250C0,191.729,0,0,0,0s170.201,0,250,0c62.324,0,250,0,250,0s0,174.261,0,250c0,138.064-111.936,250-250,250
	C111.929,500,0,388.064,0,250z"/>
</g></g><g transform="translate(162,198) scale(0.037,0.037)"><g transform="" style="fill: rgb(17, 49, 81);">
<g>
	<path d="M500,500V0H0C0.001,276.142,223.853,500,500,500z"/>
</g>
</g></g><g transform="translate(180,198) scale(0.185,0.185)"><g transform="" style="fill: rgb(17, 49, 81);">
<rect width="100" height="100"/>
</g></g><g transform="translate(270,198) scale(0.037,0.037)"><g transform="" style="fill: rgb(17, 49, 81);">
<path d="M250,0c138.077,0,250,111.93,250,250c0,138.077-111.923,250-250,250C111.93,500,0,388.077,0,250C0,111.93,111.93,0,250,0z"
	/>
</g></g><g transform="translate(306,198) scale(0.185,0.185)"><g transform="" style="fill: rgb(17, 49, 81);">
<rect width="100" height="100"/>
</g></g><g transform="translate(360,198) scale(0.037,0.037)"><g transform="" style="fill: rgb(17, 49, 81);">
<g>
	<path d="M0,500h500V0C223.861,0.001,0,223.854,0,500z"/>
</g>
</g></g><g transform="translate(378,198) scale(0.185,0.185)"><g transform="" style="fill: rgb(17, 49, 81);">
<rect width="100" height="100"/>
</g></g><g transform="translate(396,198) scale(0.185,0.185)"><g transform="" style="fill: rgb(17, 49, 81);">
<rect width="100" height="100"/>
</g></g><g transform="translate(414,198) scale(0.185,0.185)"><g transform="" style="fill: rgb(17, 49, 81);">
<rect width="100" height="100"/>
</g></g><g transform="translate(450,198) scale(0.037,0.037)"><g transform="" style="fill: rgb(17, 49, 81);">
<path d="M500,250c0,58.266,0,250,0,250s-170.194,0-250-0.012c-62.324,0.012-250,0-250,0s0-174.241,0-249.994
	C0.006,111.931,111.929,0,249.994,0C388.064,0,500,111.93,500,250z"/>
</g></g><g transform="translate(486,198) scale(0.185,0.185)"><g transform="" style="fill: rgb(17, 49, 81);">
<rect width="100" height="100"/>
</g></g><g transform="translate(18,216) scale(0.037,0.037)"><g transform="" style="fill: rgb(17, 49, 81);">
<path d="M250,0c58.27,0,250,0,250,0s0,170.182,0,250c0,62.305,0,250,0,250s-174.219,0-250,0
	C111.881,500,0,388.021,0,250C0,111.963,111.881,0,250,0z"/>
</g></g><g transform="translate(36,216) scale(0.185,0.185)"><g transform="" style="fill: rgb(17, 49, 81);">
<rect width="100" height="100"/>
</g></g><g transform="translate(54,216) scale(0.037,0.037)"><g transform="" style="fill: rgb(17, 49, 81);">
<g>
	<path d="M0,0v500h500C500,223.853,276.142,0,0,0z"/>
</g>
</g></g><g transform="translate(108,216) scale(0.037,0.037)"><g transform="" style="fill: rgb(17, 49, 81);">
<path d="M250,0c138.077,0,250,111.93,250,250c0,138.077-111.923,250-250,250C111.93,500,0,388.077,0,250C0,111.93,111.93,0,250,0z"
	/>
</g></g><g transform="translate(180,216) scale(0.037,0.037)"><g transform="" style="fill: rgb(17, 49, 81);">
<g>
	<path d="M500,500V0H0C0.001,276.142,223.853,500,500,500z"/>
</g>
</g></g><g transform="translate(198,216) scale(0.037,0.037)"><g transform="" style="fill: rgb(17, 49, 81);">
<g>
	<path d="M0,0v500h500C500,223.853,276.142,0,0,0z"/>
</g>
</g></g><g transform="translate(288,216) scale(0.037,0.037)"><g transform="" style="fill: rgb(17, 49, 81);">
<g>
	<path d="M0,500h500V0C223.861,0.001,0,223.854,0,500z"/>
</g>
</g></g><g transform="translate(306,216) scale(0.185,0.185)"><g transform="" style="fill: rgb(17, 49, 81);">
<rect width="100" height="100"/>
</g></g><g transform="translate(342,216) scale(0.037,0.037)"><g transform="" style="fill: rgb(17, 49, 81);">
<path d="M250,0c58.27,0,250,0,250,0s0,170.182,0,250c0,62.305,0,250,0,250s-174.219,0-250,0
	C111.881,500,0,388.021,0,250C0,111.963,111.881,0,250,0z"/>
</g></g><g transform="translate(360,216) scale(0.185,0.185)"><g transform="" style="fill: rgb(17, 49, 81);">
<rect width="100" height="100"/>
</g></g><g transform="translate(378,216) scale(0.185,0.185)"><g transform="" style="fill: rgb(17, 49, 81);">
<rect width="100" height="100"/>
</g></g><g transform="translate(396,216) scale(0.185,0.185)"><g transform="" style="fill: rgb(17, 49, 81);">
<rect width="100" height="100"/>
</g></g><g transform="translate(414,216) scale(0.037,0.037)"><g transform="" style="fill: rgb(17, 49, 81);">
<g>
	<path d="M500,0H0v500C276.142,500,500,276.142,500,0z"/>
</g>
</g></g><g transform="translate(450,216) scale(0.185,0.185)"><g transform="" style="fill: rgb(17, 49, 81);">
<rect width="100" height="100"/>
</g></g><g transform="translate(486,216) scale(0.037,0.037)"><g transform="" style="fill: rgb(17, 49, 81);">
<g>
	<path d="M500,500V0H0C0.001,276.142,223.853,500,500,500z"/>
</g>
</g></g><g transform="translate(504,216) scale(0.037,0.037)"><g transform="" style="fill: rgb(17, 49, 81);">
<g>
	<path d="M0,0v500h500C500,223.853,276.142,0,0,0z"/>
</g>
</g></g><g transform="translate(54,234) scale(0.185,0.185)"><g transform="" style="fill: rgb(17, 49, 81);">
<rect width="100" height="100"/>
</g></g><g transform="translate(72,234) scale(0.037,0.037)"><g transform="" style="fill: rgb(17, 49, 81);">
<g>
	<path d="M0,0v500h500C500,223.853,276.142,0,0,0z"/>
</g>
</g></g><g transform="translate(126,234) scale(0.037,0.037)"><g transform="" style="fill: rgb(17, 49, 81);">
<path d="M250,0c58.27,0,250,0,250,0s0,170.182,0,250c0,62.305,0,250,0,250s-174.219,0-250,0
	C111.881,500,0,388.021,0,250C0,111.963,111.881,0,250,0z"/>
</g></g><g transform="translate(144,234) scale(0.185,0.185)"><g transform="" style="fill: rgb(17, 49, 81);">
<rect width="100" height="100"/>
</g></g><g transform="translate(162,234) scale(0.037,0.037)"><g transform="" style="fill: rgb(17, 49, 81);">
<g>
	<path d="M0,0v500h500C500,223.853,276.142,0,0,0z"/>
</g>
</g></g><g transform="translate(198,234) scale(0.185,0.185)"><g transform="" style="fill: rgb(17, 49, 81);">
<rect width="100" height="100"/>
</g></g><g transform="translate(234,234) scale(0.037,0.037)"><g transform="" style="fill: rgb(17, 49, 81);">
<path d="M250,0c138.077,0,250,111.93,250,250c0,138.077-111.923,250-250,250C111.93,500,0,388.077,0,250C0,111.93,111.93,0,250,0z"
	/>
</g></g><g transform="translate(270,234) scale(0.037,0.037)"><g transform="" style="fill: rgb(17, 49, 81);">
<g>
	<path d="M0,500h500V0C223.861,0.001,0,223.854,0,500z"/>
</g>
</g></g><g transform="translate(288,234) scale(0.185,0.185)"><g transform="" style="fill: rgb(17, 49, 81);">
<rect width="100" height="100"/>
</g></g><g transform="translate(306,234) scale(0.185,0.185)"><g transform="" style="fill: rgb(17, 49, 81);">
<rect width="100" height="100"/>
</g></g><g transform="translate(360,234) scale(0.037,0.037)"><g transform="" style="fill: rgb(17, 49, 81);">
<g>
	<path d="M500,500V0H0C0.001,276.142,223.853,500,500,500z"/>
</g>
</g></g><g transform="translate(378,234) scale(0.185,0.185)"><g transform="" style="fill: rgb(17, 49, 81);">
<rect width="100" height="100"/>
</g></g><g transform="translate(396,234) scale(0.185,0.185)"><g transform="" style="fill: rgb(17, 49, 81);">
<rect width="100" height="100"/>
</g></g><g transform="translate(450,234) scale(0.037,0.037)"><g transform="" style="fill: rgb(17, 49, 81);">
<g>
	<path d="M500,500V0H0C0.001,276.142,223.853,500,500,500z"/>
</g>
</g></g><g transform="translate(468,234) scale(0.037,0.037)"><g transform="" style="fill: rgb(17, 49, 81);">
<path d="M250,500c-58.271,0-250,0-250,0s0-170.207,0-250C0,187.676,0,0,0,0s174.261,0,250,0c138.064,0,250,111.929,250,250
	C500,388.064,388.064,500,250,500z"/>
</g></g><g transform="translate(504,234) scale(0.185,0.185)"><g transform="" style="fill: rgb(17, 49, 81);">
<rect width="100" height="100"/>
</g></g><g transform="translate(18,252) scale(0.037,0.037)"><g transform="" style="fill: rgb(17, 49, 81);">
<path d="M250,0c58.27,0,250,0,250,0s0,170.182,0,250c0,62.305,0,250,0,250s-174.219,0-250,0
	C111.881,500,0,388.021,0,250C0,111.963,111.881,0,250,0z"/>
</g></g><g transform="translate(36,252) scale(0.185,0.185)"><g transform="" style="fill: rgb(17, 49, 81);">
<rect width="100" height="100"/>
</g></g><g transform="translate(54,252) scale(0.185,0.185)"><g transform="" style="fill: rgb(17, 49, 81);">
<rect width="100" height="100"/>
</g></g><g transform="translate(72,252) scale(0.185,0.185)"><g transform="" style="fill: rgb(17, 49, 81);">
<rect width="100" height="100"/>
</g></g><g transform="translate(108,252) scale(0.037,0.037)"><g transform="" style="fill: rgb(17, 49, 81);">
<path d="M250,0c138.077,0,250,111.93,250,250c0,138.077-111.923,250-250,250C111.93,500,0,388.077,0,250C0,111.93,111.93,0,250,0z"
	/>
</g></g><g transform="translate(162,252) scale(0.185,0.185)"><g transform="" style="fill: rgb(17, 49, 81);">
<rect width="100" height="100"/>
</g></g><g transform="translate(180,252) scale(0.185,0.185)"><g transform="" style="fill: rgb(17, 49, 81);">
<rect width="100" height="100"/>
</g></g><g transform="translate(198,252) scale(0.185,0.185)"><g transform="" style="fill: rgb(17, 49, 81);">
<rect width="100" height="100"/>
</g></g><g transform="translate(216,252) scale(0.037,0.037)"><g transform="" style="fill: rgb(17, 49, 81);">
<g>
	<path d="M0,0v500h500C500,223.853,276.142,0,0,0z"/>
</g>
</g></g><g transform="translate(252,252) scale(0.037,0.037)"><g transform="" style="fill: rgb(17, 49, 81);">
<g>
	<path d="M0,500h500V0C223.861,0.001,0,223.854,0,500z"/>
</g>
</g></g><g transform="translate(270,252) scale(0.185,0.185)"><g transform="" style="fill: rgb(17, 49, 81);">
<rect width="100" height="100"/>
</g></g><g transform="translate(288,252) scale(0.185,0.185)"><g transform="" style="fill: rgb(17, 49, 81);">
<rect width="100" height="100"/>
</g></g><g transform="translate(306,252) scale(0.185,0.185)"><g transform="" style="fill: rgb(17, 49, 81);">
<rect width="100" height="100"/>
</g></g><g transform="translate(324,252) scale(0.037,0.037)"><g transform="" style="fill: rgb(17, 49, 81);">
<g>
	<path d="M0,0v500h500C500,223.853,276.142,0,0,0z"/>
</g>
</g></g><g transform="translate(396,252) scale(0.185,0.185)"><g transform="" style="fill: rgb(17, 49, 81);">
<rect width="100" height="100"/>
</g></g><g transform="translate(486,252) scale(0.037,0.037)"><g transform="" style="fill: rgb(17, 49, 81);">
<g>
	<path d="M0,500h500V0C223.861,0.001,0,223.854,0,500z"/>
</g>
</g></g><g transform="translate(504,252) scale(0.037,0.037)"><g transform="" style="fill: rgb(17, 49, 81);">
<g>
	<path d="M500,0H0v500C276.142,500,500,276.142,500,0z"/>
</g>
</g></g><g transform="translate(0,270) scale(0.037,0.037)"><g transform="" style="fill: rgb(17, 49, 81);">
<path d="M250,0c138.077,0,250,111.93,250,250c0,138.077-111.923,250-250,250C111.93,500,0,388.077,0,250C0,111.93,111.93,0,250,0z"
	/>
</g></g><g transform="translate(54,270) scale(0.037,0.037)"><g transform="" style="fill: rgb(17, 49, 81);">
<g>
	<path d="M500,500V0H0C0.001,276.142,223.853,500,500,500z"/>
</g>
</g></g><g transform="translate(72,270) scale(0.185,0.185)"><g transform="" style="fill: rgb(17, 49, 81);">
<rect width="100" height="100"/>
</g></g><g transform="translate(90,270) scale(0.037,0.037)"><g transform="" style="fill: rgb(17, 49, 81);">
<path d="M250,500c-58.271,0-250,0-250,0s0-170.207,0-250C0,187.676,0,0,0,0s174.261,0,250,0c138.064,0,250,111.929,250,250
	C500,388.064,388.064,500,250,500z"/>
</g></g><g transform="translate(162,270) scale(0.185,0.185)"><g transform="" style="fill: rgb(17, 49, 81);">
<rect width="100" height="100"/>
</g></g><g transform="translate(216,270) scale(0.185,0.185)"><g transform="" style="fill: rgb(17, 49, 81);">
<rect width="100" height="100"/>
</g></g><g transform="translate(234,270) scale(0.185,0.185)"><g transform="" style="fill: rgb(17, 49, 81);">
<rect width="100" height="100"/>
</g></g><g transform="translate(252,270) scale(0.185,0.185)"><g transform="" style="fill: rgb(17, 49, 81);">
<rect width="100" height="100"/>
</g></g><g transform="translate(288,270) scale(0.037,0.037)"><g transform="" style="fill: rgb(17, 49, 81);">
<g>
	<path d="M500,500V0H0C0.001,276.142,223.853,500,500,500z"/>
</g>
</g></g><g transform="translate(306,270) scale(0.185,0.185)"><g transform="" style="fill: rgb(17, 49, 81);">
<rect width="100" height="100"/>
</g></g><g transform="translate(324,270) scale(0.185,0.185)"><g transform="" style="fill: rgb(17, 49, 81);">
<rect width="100" height="100"/>
</g></g><g transform="translate(342,270) scale(0.185,0.185)"><g transform="" style="fill: rgb(17, 49, 81);">
<rect width="100" height="100"/>
</g></g><g transform="translate(360,270) scale(0.037,0.037)"><g transform="" style="fill: rgb(17, 49, 81);">
<g>
	<path d="M0,0v500h500C500,223.853,276.142,0,0,0z"/>
</g>
</g></g><g transform="translate(396,270) scale(0.185,0.185)"><g transform="" style="fill: rgb(17, 49, 81);">
<rect width="100" height="100"/>
</g></g><g transform="translate(432,270) scale(0.037,0.037)"><g transform="" style="fill: rgb(17, 49, 81);">
<path d="M250,0c58.27,0,250,0,250,0s0,170.182,0,250c0,62.305,0,250,0,250s-174.219,0-250,0
	C111.881,500,0,388.021,0,250C0,111.963,111.881,0,250,0z"/>
</g></g><g transform="translate(450,270) scale(0.037,0.037)"><g transform="" style="fill: rgb(17, 49, 81);">
<path d="M250,500c-58.271,0-250,0-250,0s0-170.207,0-250C0,187.676,0,0,0,0s174.261,0,250,0c138.064,0,250,111.929,250,250
	C500,388.064,388.064,500,250,500z"/>
</g></g><g transform="translate(486,270) scale(0.185,0.185)"><g transform="" style="fill: rgb(17, 49, 81);">
<rect width="100" height="100"/>
</g></g><g transform="translate(36,288) scale(0.037,0.037)"><g transform="" style="fill: rgb(17, 49, 81);">
<path d="M500,250c0,58.266,0,250,0,250s-170.194,0-250-0.012c-62.324,0.012-250,0-250,0s0-174.241,0-249.994
	C0.006,111.931,111.929,0,249.994,0C388.064,0,500,111.93,500,250z"/>
</g></g><g transform="translate(72,288) scale(0.037,0.037)"><g transform="" style="fill: rgb(17, 49, 81);">
<path d="M0,250C0,191.729,0,0,0,0s170.201,0,250,0c62.324,0,250,0,250,0s0,174.261,0,250c0,138.064-111.936,250-250,250
	C111.929,500,0,388.064,0,250z"/>
</g></g><g transform="translate(108,288) scale(0.037,0.037)"><g transform="" style="fill: rgb(17, 49, 81);">
<path d="M250,0c58.27,0,250,0,250,0s0,170.182,0,250c0,62.305,0,250,0,250s-174.219,0-250,0
	C111.881,500,0,388.021,0,250C0,111.963,111.881,0,250,0z"/>
</g></g><g transform="translate(126,288) scale(0.037,0.037)"><g transform="" style="fill: rgb(17, 49, 81);">
<g>
	<path d="M0,0v500h500C500,223.853,276.142,0,0,0z"/>
</g>
</g></g><g transform="translate(162,288) scale(0.037,0.037)"><g transform="" style="fill: rgb(17, 49, 81);">
<g>
	<path d="M500,500V0H0C0.001,276.142,223.853,500,500,500z"/>
</g>
</g></g><g transform="translate(180,288) scale(0.185,0.185)"><g transform="" style="fill: rgb(17, 49, 81);">
<rect width="100" height="100"/>
</g></g><g transform="translate(198,288) scale(0.185,0.185)"><g transform="" style="fill: rgb(17, 49, 81);">
<rect width="100" height="100"/>
</g></g><g transform="translate(216,288) scale(0.185,0.185)"><g transform="" style="fill: rgb(17, 49, 81);">
<rect width="100" height="100"/>
</g></g><g transform="translate(252,288) scale(0.185,0.185)"><g transform="" style="fill: rgb(17, 49, 81);">
<rect width="100" height="100"/>
</g></g><g transform="translate(270,288) scale(0.037,0.037)"><g transform="" style="fill: rgb(17, 49, 81);">
<g>
	<path d="M0,0v500h500C500,223.853,276.142,0,0,0z"/>
</g>
</g></g><g transform="translate(306,288) scale(0.037,0.037)"><g transform="" style="fill: rgb(17, 49, 81);">
<path d="M0,250C0,191.729,0,0,0,0s170.201,0,250,0c62.324,0,250,0,250,0s0,174.261,0,250c0,138.064-111.936,250-250,250
	C111.929,500,0,388.064,0,250z"/>
</g></g><g transform="translate(342,288) scale(0.037,0.037)"><g transform="" style="fill: rgb(17, 49, 81);">
<g>
	<path d="M500,500V0H0C0.001,276.142,223.853,500,500,500z"/>
</g>
</g></g><g transform="translate(360,288) scale(0.185,0.185)"><g transform="" style="fill: rgb(17, 49, 81);">
<rect width="100" height="100"/>
</g></g><g transform="translate(378,288) scale(0.185,0.185)"><g transform="" style="fill: rgb(17, 49, 81);">
<rect width="100" height="100"/>
</g></g><g transform="translate(396,288) scale(0.185,0.185)"><g transform="" style="fill: rgb(17, 49, 81);">
<rect width="100" height="100"/>
</g></g><g transform="translate(486,288) scale(0.037,0.037)"><g transform="" style="fill: rgb(17, 49, 81);">
<g>
	<path d="M500,500V0H0C0.001,276.142,223.853,500,500,500z"/>
</g>
</g></g><g transform="translate(504,288) scale(0.037,0.037)"><g transform="" style="fill: rgb(17, 49, 81);">
<g>
	<path d="M0,0v500h500C500,223.853,276.142,0,0,0z"/>
</g>
</g></g><g transform="translate(18,306) scale(0.037,0.037)"><g transform="" style="fill: rgb(17, 49, 81);">
<path d="M250,0c58.27,0,250,0,250,0s0,170.182,0,250c0,62.305,0,250,0,250s-174.219,0-250,0
	C111.881,500,0,388.021,0,250C0,111.963,111.881,0,250,0z"/>
</g></g><g transform="translate(36,306) scale(0.185,0.185)"><g transform="" style="fill: rgb(17, 49, 81);">
<rect width="100" height="100"/>
</g></g><g transform="translate(126,306) scale(0.185,0.185)"><g transform="" style="fill: rgb(17, 49, 81);">
<rect width="100" height="100"/>
</g></g><g transform="translate(144,306) scale(0.037,0.037)"><g transform="" style="fill: rgb(17, 49, 81);">
<path d="M250,500c-58.271,0-250,0-250,0s0-170.207,0-250C0,187.676,0,0,0,0s174.261,0,250,0c138.064,0,250,111.929,250,250
	C500,388.064,388.064,500,250,500z"/>
</g></g><g transform="translate(198,306) scale(0.185,0.185)"><g transform="" style="fill: rgb(17, 49, 81);">
<rect width="100" height="100"/>
</g></g><g transform="translate(216,306) scale(0.185,0.185)"><g transform="" style="fill: rgb(17, 49, 81);">
<rect width="100" height="100"/>
</g></g><g transform="translate(252,306) scale(0.037,0.037)"><g transform="" style="fill: rgb(17, 49, 81);">
<g>
	<path d="M500,500V0H0C0.001,276.142,223.853,500,500,500z"/>
</g>
</g></g><g transform="translate(270,306) scale(0.037,0.037)"><g transform="" style="fill: rgb(17, 49, 81);">
<g>
	<path d="M500,0H0v500C276.142,500,500,276.142,500,0z"/>
</g>
</g></g><g transform="translate(360,306) scale(0.037,0.037)"><g transform="" style="fill: rgb(17, 49, 81);">
<g>
	<path d="M500,500V0H0C0.001,276.142,223.853,500,500,500z"/>
</g>
</g></g><g transform="translate(378,306) scale(0.185,0.185)"><g transform="" style="fill: rgb(17, 49, 81);">
<rect width="100" height="100"/>
</g></g><g transform="translate(396,306) scale(0.185,0.185)"><g transform="" style="fill: rgb(17, 49, 81);">
<rect width="100" height="100"/>
</g></g><g transform="translate(414,306) scale(0.037,0.037)"><g transform="" style="fill: rgb(17, 49, 81);">
<g>
	<path d="M0,0v500h500C500,223.853,276.142,0,0,0z"/>
</g>
</g></g><g transform="translate(468,306) scale(0.037,0.037)"><g transform="" style="fill: rgb(17, 49, 81);">
<path d="M250,0c138.077,0,250,111.93,250,250c0,138.077-111.923,250-250,250C111.93,500,0,388.077,0,250C0,111.93,111.93,0,250,0z"
	/>
</g></g><g transform="translate(504,306) scale(0.185,0.185)"><g transform="" style="fill: rgb(17, 49, 81);">
<rect width="100" height="100"/>
</g></g><g transform="translate(0,324) scale(0.037,0.037)"><g transform="" style="fill: rgb(17, 49, 81);">
<path d="M250,0c138.077,0,250,111.93,250,250c0,138.077-111.923,250-250,250C111.93,500,0,388.077,0,250C0,111.93,111.93,0,250,0z"
	/>
</g></g><g transform="translate(36,324) scale(0.185,0.185)"><g transform="" style="fill: rgb(17, 49, 81);">
<rect width="100" height="100"/>
</g></g><g transform="translate(90,324) scale(0.037,0.037)"><g transform="" style="fill: rgb(17, 49, 81);">
<path d="M250,0c58.27,0,250,0,250,0s0,170.182,0,250c0,62.305,0,250,0,250s-174.219,0-250,0
	C111.881,500,0,388.021,0,250C0,111.963,111.881,0,250,0z"/>
</g></g><g transform="translate(108,324) scale(0.185,0.185)"><g transform="" style="fill: rgb(17, 49, 81);">
<rect width="100" height="100"/>
</g></g><g transform="translate(126,324) scale(0.037,0.037)"><g transform="" style="fill: rgb(17, 49, 81);">
<g>
	<path d="M500,0H0v500C276.142,500,500,276.142,500,0z"/>
</g>
</g></g><g transform="translate(180,324) scale(0.037,0.037)"><g transform="" style="fill: rgb(17, 49, 81);">
<path d="M250,0c58.27,0,250,0,250,0s0,170.182,0,250c0,62.305,0,250,0,250s-174.219,0-250,0
	C111.881,500,0,388.021,0,250C0,111.963,111.881,0,250,0z"/>
</g></g><g transform="translate(198,324) scale(0.185,0.185)"><g transform="" style="fill: rgb(17, 49, 81);">
<rect width="100" height="100"/>
</g></g><g transform="translate(216,324) scale(0.185,0.185)"><g transform="" style="fill: rgb(17, 49, 81);">
<rect width="100" height="100"/>
</g></g><g transform="translate(234,324) scale(0.037,0.037)"><g transform="" style="fill: rgb(17, 49, 81);">
<path d="M250,500c-58.271,0-250,0-250,0s0-170.207,0-250C0,187.676,0,0,0,0s174.261,0,250,0c138.064,0,250,111.929,250,250
	C500,388.064,388.064,500,250,500z"/>
</g></g><g transform="translate(306,324) scale(0.037,0.037)"><g transform="" style="fill: rgb(17, 49, 81);">
<path d="M500,250c0,58.266,0,250,0,250s-170.194,0-250-0.012c-62.324,0.012-250,0-250,0s0-174.241,0-249.994
	C0.006,111.931,111.929,0,249.994,0C388.064,0,500,111.93,500,250z"/>
</g></g><g transform="translate(378,324) scale(0.037,0.037)"><g transform="" style="fill: rgb(17, 49, 81);">
<path d="M0,250C0,191.729,0,0,0,0s170.201,0,250,0c62.324,0,250,0,250,0s0,174.261,0,250c0,138.064-111.936,250-250,250
	C111.929,500,0,388.064,0,250z"/>
</g></g><g transform="translate(414,324) scale(0.037,0.037)"><g transform="" style="fill: rgb(17, 49, 81);">
<path d="M0,250C0,191.729,0,0,0,0s170.201,0,250,0c62.324,0,250,0,250,0s0,174.261,0,250c0,138.064-111.936,250-250,250
	C111.929,500,0,388.064,0,250z"/>
</g></g><g transform="translate(450,324) scale(0.037,0.037)"><g transform="" style="fill: rgb(17, 49, 81);">
<path d="M500,250c0,58.266,0,250,0,250s-170.194,0-250-0.012c-62.324,0.012-250,0-250,0s0-174.241,0-249.994
	C0.006,111.931,111.929,0,249.994,0C388.064,0,500,111.93,500,250z"/>
</g></g><g transform="translate(486,324) scale(0.037,0.037)"><g transform="" style="fill: rgb(17, 49, 81);">
<g>
	<path d="M0,500h500V0C223.861,0.001,0,223.854,0,500z"/>
</g>
</g></g><g transform="translate(504,324) scale(0.037,0.037)"><g transform="" style="fill: rgb(17, 49, 81);">
<g>
	<path d="M500,0H0v500C276.142,500,500,276.142,500,0z"/>
</g>
</g></g><g transform="translate(18,342) scale(0.037,0.037)"><g transform="" style="fill: rgb(17, 49, 81);">
<path d="M250,0c58.27,0,250,0,250,0s0,170.182,0,250c0,62.305,0,250,0,250s-174.219,0-250,0
	C111.881,500,0,388.021,0,250C0,111.963,111.881,0,250,0z"/>
</g></g><g transform="translate(36,342) scale(0.185,0.185)"><g transform="" style="fill: rgb(17, 49, 81);">
<rect width="100" height="100"/>
</g></g><g transform="translate(54,342) scale(0.037,0.037)"><g transform="" style="fill: rgb(17, 49, 81);">
<g>
	<path d="M0,0v500h500C500,223.853,276.142,0,0,0z"/>
</g>
</g></g><g transform="translate(270,342) scale(0.037,0.037)"><g transform="" style="fill: rgb(17, 49, 81);">
<path d="M250,0c138.077,0,250,111.93,250,250c0,138.077-111.923,250-250,250C111.93,500,0,388.077,0,250C0,111.93,111.93,0,250,0z"
	/>
</g></g><g transform="translate(306,342) scale(0.185,0.185)"><g transform="" style="fill: rgb(17, 49, 81);">
<rect width="100" height="100"/>
</g></g><g transform="translate(324,342) scale(0.185,0.185)"><g transform="" style="fill: rgb(17, 49, 81);">
<rect width="100" height="100"/>
</g></g><g transform="translate(342,342) scale(0.185,0.185)"><g transform="" style="fill: rgb(17, 49, 81);">
<rect width="100" height="100"/>
</g></g><g transform="translate(360,342) scale(0.037,0.037)"><g transform="" style="fill: rgb(17, 49, 81);">
<g>
	<path d="M0,0v500h500C500,223.853,276.142,0,0,0z"/>
</g>
</g></g><g transform="translate(396,342) scale(0.037,0.037)"><g transform="" style="fill: rgb(17, 49, 81);">
<path d="M500,250c0,58.266,0,250,0,250s-170.194,0-250-0.012c-62.324,0.012-250,0-250,0s0-174.241,0-249.994
	C0.006,111.931,111.929,0,249.994,0C388.064,0,500,111.93,500,250z"/>
</g></g><g transform="translate(450,342) scale(0.037,0.037)"><g transform="" style="fill: rgb(17, 49, 81);">
<path d="M0,250C0,191.729,0,0,0,0s170.201,0,250,0c62.324,0,250,0,250,0s0,174.261,0,250c0,138.064-111.936,250-250,250
	C111.929,500,0,388.064,0,250z"/>
</g></g><g transform="translate(486,342) scale(0.037,0.037)"><g transform="" style="fill: rgb(17, 49, 81);">
<path d="M0,250C0,191.729,0,0,0,0s170.201,0,250,0c62.324,0,250,0,250,0s0,174.261,0,250c0,138.064-111.936,250-250,250
	C111.929,500,0,388.064,0,250z"/>
</g></g><g transform="translate(0,360) scale(0.037,0.037)"><g transform="" style="fill: rgb(17, 49, 81);">
<path d="M250,0c138.077,0,250,111.93,250,250c0,138.077-111.923,250-250,250C111.93,500,0,388.077,0,250C0,111.93,111.93,0,250,0z"
	/>
</g></g><g transform="translate(54,360) scale(0.037,0.037)"><g transform="" style="fill: rgb(17, 49, 81);">
<g>
	<path d="M500,500V0H0C0.001,276.142,223.853,500,500,500z"/>
</g>
</g></g><g transform="translate(72,360) scale(0.185,0.185)"><g transform="" style="fill: rgb(17, 49, 81);">
<rect width="100" height="100"/>
</g></g><g transform="translate(90,360) scale(0.185,0.185)"><g transform="" style="fill: rgb(17, 49, 81);">
<rect width="100" height="100"/>
</g></g><g transform="translate(108,360) scale(0.037,0.037)"><g transform="" style="fill: rgb(17, 49, 81);">
<path d="M250,500c-58.271,0-250,0-250,0s0-170.207,0-250C0,187.676,0,0,0,0s174.261,0,250,0c138.064,0,250,111.929,250,250
	C500,388.064,388.064,500,250,500z"/>
</g></g><g transform="translate(144,360) scale(0.037,0.037)"><g transform="" style="fill: rgb(17, 49, 81);">
<g>
	<path d="M0,500h500V0C223.861,0.001,0,223.854,0,500z"/>
</g>
</g></g><g transform="translate(162,360) scale(0.185,0.185)"><g transform="" style="fill: rgb(17, 49, 81);">
<rect width="100" height="100"/>
</g></g><g transform="translate(180,360) scale(0.185,0.185)"><g transform="" style="fill: rgb(17, 49, 81);">
<rect width="100" height="100"/>
</g></g><g transform="translate(198,360) scale(0.037,0.037)"><g transform="" style="fill: rgb(17, 49, 81);">
<path d="M250,500c-58.271,0-250,0-250,0s0-170.207,0-250C0,187.676,0,0,0,0s174.261,0,250,0c138.064,0,250,111.929,250,250
	C500,388.064,388.064,500,250,500z"/>
</g></g><g transform="translate(288,360) scale(0.037,0.037)"><g transform="" style="fill: rgb(17, 49, 81);">
<g>
	<path d="M0,500h500V0C223.861,0.001,0,223.854,0,500z"/>
</g>
</g></g><g transform="translate(306,360) scale(0.037,0.037)"><g transform="" style="fill: rgb(17, 49, 81);">
<g>
	<path d="M500,0H0v500C276.142,500,500,276.142,500,0z"/>
</g>
</g></g><g transform="translate(342,360) scale(0.185,0.185)"><g transform="" style="fill: rgb(17, 49, 81);">
<rect width="100" height="100"/>
</g></g><g transform="translate(360,360) scale(0.185,0.185)"><g transform="" style="fill: rgb(17, 49, 81);">
<rect width="100" height="100"/>
</g></g><g transform="translate(378,360) scale(0.185,0.185)"><g transform="" style="fill: rgb(17, 49, 81);">
<rect width="100" height="100"/>
</g></g><g transform="translate(396,360) scale(0.185,0.185)"><g transform="" style="fill: rgb(17, 49, 81);">
<rect width="100" height="100"/>
</g></g><g transform="translate(414,360) scale(0.185,0.185)"><g transform="" style="fill: rgb(17, 49, 81);">
<rect width="100" height="100"/>
</g></g><g transform="translate(432,360) scale(0.037,0.037)"><g transform="" style="fill: rgb(17, 49, 81);">
<g>
	<path d="M0,0v500h500C500,223.853,276.142,0,0,0z"/>
</g>
</g></g><g transform="translate(144,378) scale(0.037,0.037)"><g transform="" style="fill: rgb(17, 49, 81);">
<g>
	<path d="M500,500V0H0C0.001,276.142,223.853,500,500,500z"/>
</g>
</g></g><g transform="translate(162,378) scale(0.037,0.037)"><g transform="" style="fill: rgb(17, 49, 81);">
<g>
	<path d="M500,0H0v500C276.142,500,500,276.142,500,0z"/>
</g>
</g></g><g transform="translate(216,378) scale(0.037,0.037)"><g transform="" style="fill: rgb(17, 49, 81);">
<path d="M250,0c58.27,0,250,0,250,0s0,170.182,0,250c0,62.305,0,250,0,250s-174.219,0-250,0
	C111.881,500,0,388.021,0,250C0,111.963,111.881,0,250,0z"/>
</g></g><g transform="translate(234,378) scale(0.037,0.037)"><g transform="" style="fill: rgb(17, 49, 81);">
<path d="M250,500c-58.271,0-250,0-250,0s0-170.207,0-250C0,187.676,0,0,0,0s174.261,0,250,0c138.064,0,250,111.929,250,250
	C500,388.064,388.064,500,250,500z"/>
</g></g><g transform="translate(270,378) scale(0.037,0.037)"><g transform="" style="fill: rgb(17, 49, 81);">
<g>
	<path d="M0,500h500V0C223.861,0.001,0,223.854,0,500z"/>
</g>
</g></g><g transform="translate(288,378) scale(0.185,0.185)"><g transform="" style="fill: rgb(17, 49, 81);">
<rect width="100" height="100"/>
</g></g><g transform="translate(342,378) scale(0.185,0.185)"><g transform="" style="fill: rgb(17, 49, 81);">
<rect width="100" height="100"/>
</g></g><g transform="translate(360,378) scale(0.185,0.185)"><g transform="" style="fill: rgb(17, 49, 81);">
<rect width="100" height="100"/>
</g></g><g transform="translate(432,378) scale(0.185,0.185)"><g transform="" style="fill: rgb(17, 49, 81);">
<rect width="100" height="100"/>
</g></g><g transform="translate(468,378) scale(0.037,0.037)"><g transform="" style="fill: rgb(17, 49, 81);">
<path d="M250,0c58.27,0,250,0,250,0s0,170.182,0,250c0,62.305,0,250,0,250s-174.219,0-250,0
	C111.881,500,0,388.021,0,250C0,111.963,111.881,0,250,0z"/>
</g></g><g transform="translate(486,378) scale(0.185,0.185)"><g transform="" style="fill: rgb(17, 49, 81);">
<rect width="100" height="100"/>
</g></g><g transform="translate(504,378) scale(0.037,0.037)"><g transform="" style="fill: rgb(17, 49, 81);">
<g>
	<path d="M0,0v500h500C500,223.853,276.142,0,0,0z"/>
</g>
</g></g><g transform="translate(180,396) scale(0.037,0.037)"><g transform="" style="fill: rgb(17, 49, 81);">
<g>
	<path d="M0,500h500V0C223.861,0.001,0,223.854,0,500z"/>
</g>
</g></g><g transform="translate(198,396) scale(0.037,0.037)"><g transform="" style="fill: rgb(17, 49, 81);">
<g>
	<path d="M0,0v500h500C500,223.853,276.142,0,0,0z"/>
</g>
</g></g><g transform="translate(252,396) scale(0.037,0.037)"><g transform="" style="fill: rgb(17, 49, 81);">
<g>
	<path d="M0,500h500V0C223.861,0.001,0,223.854,0,500z"/>
</g>
</g></g><g transform="translate(270,396) scale(0.185,0.185)"><g transform="" style="fill: rgb(17, 49, 81);">
<rect width="100" height="100"/>
</g></g><g transform="translate(288,396) scale(0.185,0.185)"><g transform="" style="fill: rgb(17, 49, 81);">
<rect width="100" height="100"/>
</g></g><g transform="translate(342,396) scale(0.185,0.185)"><g transform="" style="fill: rgb(17, 49, 81);">
<rect width="100" height="100"/>
</g></g><g transform="translate(360,396) scale(0.185,0.185)"><g transform="" style="fill: rgb(17, 49, 81);">
<rect width="100" height="100"/>
</g></g><g transform="translate(396,396) scale(0.037,0.037)"><g transform="" style="fill: rgb(17, 49, 81);">
<path d="M250,0c138.077,0,250,111.93,250,250c0,138.077-111.923,250-250,250C111.93,500,0,388.077,0,250C0,111.93,111.93,0,250,0z"
	/>
</g></g><g transform="translate(432,396) scale(0.185,0.185)"><g transform="" style="fill: rgb(17, 49, 81);">
<rect width="100" height="100"/>
</g></g><g transform="translate(450,396) scale(0.037,0.037)"><g transform="" style="fill: rgb(17, 49, 81);">
<path d="M250,500c-58.271,0-250,0-250,0s0-170.207,0-250C0,187.676,0,0,0,0s174.261,0,250,0c138.064,0,250,111.929,250,250
	C500,388.064,388.064,500,250,500z"/>
</g></g><g transform="translate(486,396) scale(0.185,0.185)"><g transform="" style="fill: rgb(17, 49, 81);">
<rect width="100" height="100"/>
</g></g><g transform="translate(504,396) scale(0.037,0.037)"><g transform="" style="fill: rgb(17, 49, 81);">
<g>
	<path d="M500,0H0v500C276.142,500,500,276.142,500,0z"/>
</g>
</g></g><g transform="translate(162,414) scale(0.037,0.037)"><g transform="" style="fill: rgb(17, 49, 81);">
<path d="M250,0c58.27,0,250,0,250,0s0,170.182,0,250c0,62.305,0,250,0,250s-174.219,0-250,0
	C111.881,500,0,388.021,0,250C0,111.963,111.881,0,250,0z"/>
</g></g><g transform="translate(180,414) scale(0.185,0.185)"><g transform="" style="fill: rgb(17, 49, 81);">
<rect width="100" height="100"/>
</g></g><g transform="translate(198,414) scale(0.185,0.185)"><g transform="" style="fill: rgb(17, 49, 81);">
<rect width="100" height="100"/>
</g></g><g transform="translate(216,414) scale(0.185,0.185)"><g transform="" style="fill: rgb(17, 49, 81);">
<rect width="100" height="100"/>
</g></g><g transform="translate(234,414) scale(0.185,0.185)"><g transform="" style="fill: rgb(17, 49, 81);">
<rect width="100" height="100"/>
</g></g><g transform="translate(252,414) scale(0.185,0.185)"><g transform="" style="fill: rgb(17, 49, 81);">
<rect width="100" height="100"/>
</g></g><g transform="translate(288,414) scale(0.037,0.037)"><g transform="" style="fill: rgb(17, 49, 81);">
<g>
	<path d="M500,500V0H0C0.001,276.142,223.853,500,500,500z"/>
</g>
</g></g><g transform="translate(306,414) scale(0.185,0.185)"><g transform="" style="fill: rgb(17, 49, 81);">
<rect width="100" height="100"/>
</g></g><g transform="translate(324,414) scale(0.185,0.185)"><g transform="" style="fill: rgb(17, 49, 81);">
<rect width="100" height="100"/>
</g></g><g transform="translate(342,414) scale(0.185,0.185)"><g transform="" style="fill: rgb(17, 49, 81);">
<rect width="100" height="100"/>
</g></g><g transform="translate(360,414) scale(0.185,0.185)"><g transform="" style="fill: rgb(17, 49, 81);">
<rect width="100" height="100"/>
</g></g><g transform="translate(432,414) scale(0.185,0.185)"><g transform="" style="fill: rgb(17, 49, 81);">
<rect width="100" height="100"/>
</g></g><g transform="translate(486,414) scale(0.185,0.185)"><g transform="" style="fill: rgb(17, 49, 81);">
<rect width="100" height="100"/>
</g></g><g transform="translate(144,432) scale(0.037,0.037)"><g transform="" style="fill: rgb(17, 49, 81);">
<path d="M250,0c138.077,0,250,111.93,250,250c0,138.077-111.923,250-250,250C111.93,500,0,388.077,0,250C0,111.93,111.93,0,250,0z"
	/>
</g></g><g transform="translate(198,432) scale(0.037,0.037)"><g transform="" style="fill: rgb(17, 49, 81);">
<g>
	<path d="M500,500V0H0C0.001,276.142,223.853,500,500,500z"/>
</g>
</g></g><g transform="translate(216,432) scale(0.185,0.185)"><g transform="" style="fill: rgb(17, 49, 81);">
<rect width="100" height="100"/>
</g></g><g transform="translate(252,432) scale(0.185,0.185)"><g transform="" style="fill: rgb(17, 49, 81);">
<rect width="100" height="100"/>
</g></g><g transform="translate(270,432) scale(0.037,0.037)"><g transform="" style="fill: rgb(17, 49, 81);">
<g>
	<path d="M0,0v500h500C500,223.853,276.142,0,0,0z"/>
</g>
</g></g><g transform="translate(324,432) scale(0.037,0.037)"><g transform="" style="fill: rgb(17, 49, 81);">
<path d="M0,250C0,191.729,0,0,0,0s170.201,0,250,0c62.324,0,250,0,250,0s0,174.261,0,250c0,138.064-111.936,250-250,250
	C111.929,500,0,388.064,0,250z"/>
</g></g><g transform="translate(360,432) scale(0.037,0.037)"><g transform="" style="fill: rgb(17, 49, 81);">
<g>
	<path d="M500,500V0H0C0.001,276.142,223.853,500,500,500z"/>
</g>
</g></g><g transform="translate(378,432) scale(0.185,0.185)"><g transform="" style="fill: rgb(17, 49, 81);">
<rect width="100" height="100"/>
</g></g><g transform="translate(396,432) scale(0.185,0.185)"><g transform="" style="fill: rgb(17, 49, 81);">
<rect width="100" height="100"/>
</g></g><g transform="translate(414,432) scale(0.185,0.185)"><g transform="" style="fill: rgb(17, 49, 81);">
<rect width="100" height="100"/>
</g></g><g transform="translate(432,432) scale(0.185,0.185)"><g transform="" style="fill: rgb(17, 49, 81);">
<rect width="100" height="100"/>
</g></g><g transform="translate(450,432) scale(0.037,0.037)"><g transform="" style="fill: rgb(17, 49, 81);">
<path d="M250,500c-58.271,0-250,0-250,0s0-170.207,0-250C0,187.676,0,0,0,0s174.261,0,250,0c138.064,0,250,111.929,250,250
	C500,388.064,388.064,500,250,500z"/>
</g></g><g transform="translate(486,432) scale(0.037,0.037)"><g transform="" style="fill: rgb(17, 49, 81);">
<path d="M0,250C0,191.729,0,0,0,0s170.201,0,250,0c62.324,0,250,0,250,0s0,174.261,0,250c0,138.064-111.936,250-250,250
	C111.929,500,0,388.064,0,250z"/>
</g></g><g transform="translate(216,450) scale(0.037,0.037)"><g transform="" style="fill: rgb(17, 49, 81);">
<path d="M0,250C0,191.729,0,0,0,0s170.201,0,250,0c62.324,0,250,0,250,0s0,174.261,0,250c0,138.064-111.936,250-250,250
	C111.929,500,0,388.064,0,250z"/>
</g></g><g transform="translate(252,450) scale(0.037,0.037)"><g transform="" style="fill: rgb(17, 49, 81);">
<g>
	<path d="M500,500V0H0C0.001,276.142,223.853,500,500,500z"/>
</g>
</g></g><g transform="translate(270,450) scale(0.037,0.037)"><g transform="" style="fill: rgb(17, 49, 81);">
<g>
	<path d="M500,0H0v500C276.142,500,500,276.142,500,0z"/>
</g>
</g></g><g transform="translate(432,450) scale(0.185,0.185)"><g transform="" style="fill: rgb(17, 49, 81);">
<rect width="100" height="100"/>
</g></g><g transform="translate(144,468) scale(0.037,0.037)"><g transform="" style="fill: rgb(17, 49, 81);">
<path d="M250,0c138.077,0,250,111.93,250,250c0,138.077-111.923,250-250,250C111.93,500,0,388.077,0,250C0,111.93,111.93,0,250,0z"
	/>
</g></g><g transform="translate(198,468) scale(0.037,0.037)"><g transform="" style="fill: rgb(17, 49, 81);">
<path d="M250,0c138.077,0,250,111.93,250,250c0,138.077-111.923,250-250,250C111.93,500,0,388.077,0,250C0,111.93,111.93,0,250,0z"
	/>
</g></g><g transform="translate(234,468) scale(0.037,0.037)"><g transform="" style="fill: rgb(17, 49, 81);">
<path d="M500,250c0,58.266,0,250,0,250s-170.194,0-250-0.012c-62.324,0.012-250,0-250,0s0-174.241,0-249.994
	C0.006,111.931,111.929,0,249.994,0C388.064,0,500,111.93,500,250z"/>
</g></g><g transform="translate(306,468) scale(0.037,0.037)"><g transform="" style="fill: rgb(17, 49, 81);">
<path d="M250,0c138.077,0,250,111.93,250,250c0,138.077-111.923,250-250,250C111.93,500,0,388.077,0,250C0,111.93,111.93,0,250,0z"
	/>
</g></g><g transform="translate(342,468) scale(0.037,0.037)"><g transform="" style="fill: rgb(17, 49, 81);">
<g>
	<path d="M0,500h500V0C223.861,0.001,0,223.854,0,500z"/>
</g>
</g></g><g transform="translate(360,468) scale(0.037,0.037)"><g transform="" style="fill: rgb(17, 49, 81);">
<g>
	<path d="M0,0v500h500C500,223.853,276.142,0,0,0z"/>
</g>
</g></g><g transform="translate(414,468) scale(0.037,0.037)"><g transform="" style="fill: rgb(17, 49, 81);">
<path d="M250,0c58.27,0,250,0,250,0s0,170.182,0,250c0,62.305,0,250,0,250s-174.219,0-250,0
	C111.881,500,0,388.021,0,250C0,111.963,111.881,0,250,0z"/>
</g></g><g transform="translate(432,468) scale(0.185,0.185)"><g transform="" style="fill: rgb(17, 49, 81);">
<rect width="100" height="100"/>
</g></g><g transform="translate(450,468) scale(0.037,0.037)"><g transform="" style="fill: rgb(17, 49, 81);">
<path d="M250,500c-58.271,0-250,0-250,0s0-170.207,0-250C0,187.676,0,0,0,0s174.261,0,250,0c138.064,0,250,111.929,250,250
	C500,388.064,388.064,500,250,500z"/>
</g></g><g transform="translate(504,468) scale(0.037,0.037)"><g transform="" style="fill: rgb(17, 49, 81);">
<path d="M250,0c138.077,0,250,111.93,250,250c0,138.077-111.923,250-250,250C111.93,500,0,388.077,0,250C0,111.93,111.93,0,250,0z"
	/>
</g></g><g transform="translate(180,486) scale(0.037,0.037)"><g transform="" style="fill: rgb(17, 49, 81);">
<path d="M500,250c0,58.266,0,250,0,250s-170.194,0-250-0.012c-62.324,0.012-250,0-250,0s0-174.241,0-249.994
	C0.006,111.931,111.929,0,249.994,0C388.064,0,500,111.93,500,250z"/>
</g></g><g transform="translate(216,486) scale(0.037,0.037)"><g transform="" style="fill: rgb(17, 49, 81);">
<path d="M250,0c58.27,0,250,0,250,0s0,170.182,0,250c0,62.305,0,250,0,250s-174.219,0-250,0
	C111.881,500,0,388.021,0,250C0,111.963,111.881,0,250,0z"/>
</g></g><g transform="translate(234,486) scale(0.037,0.037)"><g transform="" style="fill: rgb(17, 49, 81);">
<g>
	<path d="M500,0H0v500C276.142,500,500,276.142,500,0z"/>
</g>
</g></g><g transform="translate(270,486) scale(0.037,0.037)"><g transform="" style="fill: rgb(17, 49, 81);">
<path d="M250,0c138.077,0,250,111.93,250,250c0,138.077-111.923,250-250,250C111.93,500,0,388.077,0,250C0,111.93,111.93,0,250,0z"
	/>
</g></g><g transform="translate(342,486) scale(0.185,0.185)"><g transform="" style="fill: rgb(17, 49, 81);">
<rect width="100" height="100"/>
</g></g><g transform="translate(360,486) scale(0.185,0.185)"><g transform="" style="fill: rgb(17, 49, 81);">
<rect width="100" height="100"/>
</g></g><g transform="translate(432,486) scale(0.185,0.185)"><g transform="" style="fill: rgb(17, 49, 81);">
<rect width="100" height="100"/>
</g></g><g transform="translate(486,486) scale(0.037,0.037)"><g transform="" style="fill: rgb(17, 49, 81);">
<path d="M500,250c0,58.266,0,250,0,250s-170.194,0-250-0.012c-62.324,0.012-250,0-250,0s0-174.241,0-249.994
	C0.006,111.931,111.929,0,249.994,0C388.064,0,500,111.93,500,250z"/>
</g></g><g transform="translate(144,504) scale(0.037,0.037)"><g transform="" style="fill: rgb(17, 49, 81);">
<path d="M250,0c58.27,0,250,0,250,0s0,170.182,0,250c0,62.305,0,250,0,250s-174.219,0-250,0
	C111.881,500,0,388.021,0,250C0,111.963,111.881,0,250,0z"/>
</g></g><g transform="translate(162,504) scale(0.185,0.185)"><g transform="" style="fill: rgb(17, 49, 81);">
<rect width="100" height="100"/>
</g></g><g transform="translate(180,504) scale(0.185,0.185)"><g transform="" style="fill: rgb(17, 49, 81);">
<rect width="100" height="100"/>
</g></g><g transform="translate(198,504) scale(0.037,0.037)"><g transform="" style="fill: rgb(17, 49, 81);">
<path d="M250,500c-58.271,0-250,0-250,0s0-170.207,0-250C0,187.676,0,0,0,0s174.261,0,250,0c138.064,0,250,111.929,250,250
	C500,388.064,388.064,500,250,500z"/>
</g></g><g transform="translate(252,504) scale(0.037,0.037)"><g transform="" style="fill: rgb(17, 49, 81);">
<path d="M250,0c138.077,0,250,111.93,250,250c0,138.077-111.923,250-250,250C111.93,500,0,388.077,0,250C0,111.93,111.93,0,250,0z"
	/>
</g></g><g transform="translate(288,504) scale(0.037,0.037)"><g transform="" style="fill: rgb(17, 49, 81);">
<path d="M250,0c138.077,0,250,111.93,250,250c0,138.077-111.923,250-250,250C111.93,500,0,388.077,0,250C0,111.93,111.93,0,250,0z"
	/>
</g></g><g transform="translate(342,504) scale(0.037,0.037)"><g transform="" style="fill: rgb(17, 49, 81);">
<g>
	<path d="M500,500V0H0C0.001,276.142,223.853,500,500,500z"/>
</g>
</g></g><g transform="translate(360,504) scale(0.037,0.037)"><g transform="" style="fill: rgb(17, 49, 81);">
<g>
	<path d="M500,0H0v500C276.142,500,500,276.142,500,0z"/>
</g>
</g></g><g transform="translate(396,504) scale(0.037,0.037)"><g transform="" style="fill: rgb(17, 49, 81);">
<path d="M250,0c58.27,0,250,0,250,0s0,170.182,0,250c0,62.305,0,250,0,250s-174.219,0-250,0
	C111.881,500,0,388.021,0,250C0,111.963,111.881,0,250,0z"/>
</g></g><g transform="translate(414,504) scale(0.185,0.185)"><g transform="" style="fill: rgb(17, 49, 81);">
<rect width="100" height="100"/>
</g></g><g transform="translate(432,504) scale(0.185,0.185)"><g transform="" style="fill: rgb(17, 49, 81);">
<rect width="100" height="100"/>
</g></g><g transform="translate(450,504) scale(0.037,0.037)"><g transform="" style="fill: rgb(17, 49, 81);">
<path d="M250,500c-58.271,0-250,0-250,0s0-170.207,0-250C0,187.676,0,0,0,0s174.261,0,250,0c138.064,0,250,111.929,250,250
	C500,388.064,388.064,500,250,500z"/>
</g></g><g transform="translate(486,504) scale(0.037,0.037)"><g transform="" style="fill: rgb(17, 49, 81);">
<g>
	<path d="M500,500V0H0C0.001,276.142,223.853,500,500,500z"/>
</g>
</g></g><g transform="translate(504,504) scale(0.037,0.037)"><g transform="" style="fill: rgb(17, 49, 81);">
<path d="M250,500c-58.271,0-250,0-250,0s0-170.207,0-250C0,187.676,0,0,0,0s174.261,0,250,0c138.064,0,250,111.929,250,250
	C500,388.064,388.064,500,250,500z"/>
</g></g><g transform="translate(0,0) scale(1.26, 1.26)"><g transform="" style="fill: rgb(17, 49, 81);">
<g>
	<path style="fill:none;" d="M65.859,15.008H34.141c-4.082,0-7.869,1.258-10.979,3.398c-2.419,1.665-4.428,3.864-5.848,6.421
		C15.838,27.484,15,30.526,15,33.758v32.471c0,10.344,8.586,18.76,19.145,18.76L50,84.992l15.855-0.004
		C76.414,84.988,85,76.572,85,66.229V33.758C85,23.419,76.414,15.008,65.859,15.008z"/>
	<path d="M65.859,0.008H34.141h0C18.683,0.008,5.587,10.221,1.4,24.18c-0.433,1.444-0.771,2.928-1.006,4.445
		C0.135,30.299,0,32.013,0,33.758v32.471c0,18.619,15.32,33.76,34.141,33.76L50,99.992l15.859-0.004
		c18.82,0,34.141-15.141,34.141-33.76V33.758C100,15.148,84.68,0.008,65.859,0.008z M85,66.229c0,10.344-8.586,18.76-19.145,18.76
		L50,84.992l-15.855-0.004C23.586,84.988,15,76.572,15,66.229V33.758c0-3.231,0.838-6.273,2.313-8.931
		c1.42-2.557,3.429-4.756,5.848-6.421c3.11-2.141,6.897-3.398,10.979-3.398h31.719C76.414,15.008,85,23.419,85,33.758V66.229z"/>
</g>
</g></g><g transform="translate(396,0) scale(1.26, 1.26)"><g transform="" style="fill: rgb(17, 49, 81);">
<g>
	<path style="fill:none;" d="M65.859,15.008H34.141c-4.082,0-7.869,1.258-10.979,3.398c-2.419,1.665-4.428,3.864-5.848,6.421
		C15.838,27.484,15,30.526,15,33.758v32.471c0,10.344,8.586,18.76,19.145,18.76L50,84.992l15.855-0.004
		C76.414,84.988,85,76.572,85,66.229V33.758C85,23.419,76.414,15.008,65.859,15.008z"/>
	<path d="M65.859,0.008H34.141h0C18.683,0.008,5.587,10.221,1.4,24.18c-0.433,1.444-0.771,2.928-1.006,4.445
		C0.135,30.299,0,32.013,0,33.758v32.471c0,18.619,15.32,33.76,34.141,33.76L50,99.992l15.859-0.004
		c18.82,0,34.141-15.141,34.141-33.76V33.758C100,15.148,84.68,0.008,65.859,0.008z M85,66.229c0,10.344-8.586,18.76-19.145,18.76
		L50,84.992l-15.855-0.004C23.586,84.988,15,76.572,15,66.229V33.758c0-3.231,0.838-6.273,2.313-8.931
		c1.42-2.557,3.429-4.756,5.848-6.421c3.11-2.141,6.897-3.398,10.979-3.398h31.719C76.414,15.008,85,23.419,85,33.758V66.229z"/>
</g>
</g></g><g transform="translate(0,396) scale(1.26, 1.26)"><g transform="" style="fill: rgb(17, 49, 81);">
<g>
	<path style="fill:none;" d="M65.859,15.008H34.141c-4.082,0-7.869,1.258-10.979,3.398c-2.419,1.665-4.428,3.864-5.848,6.421
		C15.838,27.484,15,30.526,15,33.758v32.471c0,10.344,8.586,18.76,19.145,18.76L50,84.992l15.855-0.004
		C76.414,84.988,85,76.572,85,66.229V33.758C85,23.419,76.414,15.008,65.859,15.008z"/>
	<path d="M65.859,0.008H34.141h0C18.683,0.008,5.587,10.221,1.4,24.18c-0.433,1.444-0.771,2.928-1.006,4.445
		C0.135,30.299,0,32.013,0,33.758v32.471c0,18.619,15.32,33.76,34.141,33.76L50,99.992l15.859-0.004
		c18.82,0,34.141-15.141,34.141-33.76V33.758C100,15.148,84.68,0.008,65.859,0.008z M85,66.229c0,10.344-8.586,18.76-19.145,18.76
		L50,84.992l-15.855-0.004C23.586,84.988,15,76.572,15,66.229V33.758c0-3.231,0.838-6.273,2.313-8.931
		c1.42-2.557,3.429-4.756,5.848-6.421c3.11-2.141,6.897-3.398,10.979-3.398h31.719C76.414,15.008,85,23.419,85,33.758V66.229z"/>
</g>
</g></g><g transform="translate(36,36) scale(0.54, 0.54)"><g transform="" style="fill: rgb(17, 49, 81);">
<g>
	<g id="XMLID_1_">
		<g>
			<path d="M27.351,100c-15.09,0-27.365-12.032-27.365-26.808V26.794c0-4.616,1.2-8.96,3.301-12.761
				c2.029-3.658,4.901-6.802,8.36-9.174C16.09,1.801,21.506,0,27.336,0h45.327c15.076,0,27.351,12.018,27.351,26.793v46.398
				c0,14.775-12.274,26.808-27.351,26.808H50H27.351z"/>
		</g>
		<g>
		</g>
	</g>
</g>
</g></g><g transform="translate(432,36) scale(0.54, 0.54)"><g transform="" style="fill: rgb(17, 49, 81);">
<g>
	<g id="XMLID_1_">
		<g>
			<path d="M27.351,100c-15.09,0-27.365-12.032-27.365-26.808V26.794c0-4.616,1.2-8.96,3.301-12.761
				c2.029-3.658,4.901-6.802,8.36-9.174C16.09,1.801,21.506,0,27.336,0h45.327c15.076,0,27.351,12.018,27.351,26.793v46.398
				c0,14.775-12.274,26.808-27.351,26.808H50H27.351z"/>
		</g>
		<g>
		</g>
	</g>
</g>
</g></g><g transform="translate(36,432) scale(0.54, 0.54)"><g transform="" style="fill: rgb(17, 49, 81);">
<g>
	<g id="XMLID_1_">
		<g>
			<path d="M27.351,100c-15.09,0-27.365-12.032-27.365-26.808V26.794c0-4.616,1.2-8.96,3.301-12.761
				c2.029-3.658,4.901-6.802,8.36-9.174C16.09,1.801,21.506,0,27.336,0h45.327c15.076,0,27.351,12.018,27.351,26.793v46.398
				c0,14.775-12.274,26.808-27.351,26.808H50H27.351z"/>
		</g>
		<g>
		</g>
	</g>
</g>
</g></g></g></svg>