<svg xmlns="http://www.w3.org/2000/svg" width="" height="" viewBox="0 0 430 770">
  <defs>
    <style>
      .cls-1 {
        fill: #0645a3;
      }

      .cls-1, .cls-2 {
        fill-rule: evenodd;
      }

      .cls-2 {
        fill: #e28706;
      }
    </style>
  </defs>
  <path id="Rounded_Rectangle_12_copy_3" data-name="Rounded Rectangle 12 copy 3" class="cls-1" d="M13.551,706.955c-9.912,0-10.551-.7-10.551-9.678V72.671C3,63.7,3.638,63,13.551,63H51.677c9.3,0.154,10.631-.045,10.323-10.021V14.851C62,6,62.071,4,74.022,4H354.978C366.929,4,367,6,367,14.86V53.016C366.692,63,368.022,63.2,377.323,63.045h38.126c9.913,0,10.551.7,10.551,9.678V697.277c0,8.977-.638,9.678-10.551,9.678H377.323c-9.3-.154-10.631.045-10.323,10.029V755.14C367,764,366.929,766,354.978,766H74.022C62.471,766,62,764,62,755.14V716.984C62.308,707,60.978,706.8,51.677,706.955H13.551Z"/>
  <path id="Rectangle_573_copy_3" data-name="Rectangle 573 copy 3" class="cls-1" d="M27.1,52.5q-10.075,0-20.15,0c-2.886,0-3.874-.989-3.877-3.884Q3.055,28.28,3.054,7.941c0-2.9.989-3.888,3.878-3.888q20.335,0,40.67.018c2.9,0,3.891.986,3.892,3.867q0.008,20.338,0,40.676c0,2.9-.982,3.882-3.875,3.885Q37.36,52.51,27.1,52.5Zm0.368-42.55c-5.664,0-11.328.031-16.991-.026C9.3,9.914,8.917,10.2,8.923,11.438Q9,28.246,8.93,45.054c0,1.161.264,1.564,1.514,1.559q16.806-.077,33.613-0.006c1.175,0,1.557-.268,1.552-1.509q-0.074-16.808.007-33.617c0.008-1.418-.539-1.563-1.711-1.553C38.426,9.978,32.947,9.951,27.468,9.951Zm-10.311,8.2H38.438V39.438H17.156V18.156Z"/>
  <path id="Rectangle_573_copy_4" data-name="Rectangle 573 copy 4" class="cls-1" d="M27.1,765.5q-10.075,0-20.15,0c-2.886,0-3.874-.988-3.877-3.883q-0.018-20.338-.018-40.676c0-2.9.989-3.888,3.878-3.888q20.335,0,40.67.019c2.9,0,3.891.986,3.892,3.866q0.008,20.338,0,40.676c0,2.9-.982,3.882-3.875,3.885Q37.36,765.509,27.1,765.5Zm0.368-42.551c-5.664,0-11.328.031-16.991-.026-1.176-.011-1.559.272-1.554,1.513Q9,741.246,8.93,758.054c0,1.161.264,1.565,1.514,1.559q16.806-.077,33.613-0.005c1.175,0.005,1.557-.268,1.552-1.509q-0.074-16.808.007-33.617c0.008-1.418-.539-1.563-1.711-1.553C38.426,722.978,32.947,722.951,27.468,722.951Zm-10.311,8.2H38.438v21.282H17.156V731.156Z"/>
  <path id="Rectangle_573_copy_5" data-name="Rectangle 573 copy 5" class="cls-1" d="M401.1,765.5q-10.076,0-20.151,0c-2.886,0-3.874-.988-3.876-3.883q-0.018-20.338-.019-40.676c0-2.9.989-3.888,3.878-3.888q20.335,0,40.67.019c2.9,0,3.892.986,3.893,3.866q0.007,20.338,0,40.676c0,2.9-.982,3.882-3.875,3.885Q411.36,765.509,401.1,765.5Zm0.368-42.551c-5.664,0-11.328.031-16.991-.026-1.176-.011-1.56.272-1.554,1.513q0.073,16.808.007,33.616c0,1.161.264,1.565,1.514,1.559q16.806-.077,33.612-0.005c1.175,0.005,1.558-.268,1.552-1.509q-0.073-16.808.007-33.617c0.008-1.418-.539-1.563-1.71-1.553C412.426,722.978,406.947,722.951,401.468,722.951Zm-10.312,8.2h21.282v21.282H391.156V731.156Z"/>
  <path id="Shape_7_copy_3" data-name="Shape 7 copy 3" class="cls-2" d="M406.777,52.555q-2.124-.026-4.248-0.054c-2.65-.029-3.7-1.021-3.708-3.69-0.026-8.133-.01-16.266-0.011-24.4,0-4.313-.044-8.626.027-12.938,0.02-1.234-.379-1.551-1.567-1.533q-6.191.092-12.382-.017c-1.1-.018-1.491.237-1.468,1.418q0.12,6.282.017,12.567c-0.02,1.221.453,1.447,1.509,1.4,1.475-.067,2.958-0.06,4.434,0,2.036,0.087,3.327,1.281,3.326,2.968s-1.312,2.891-3.336,2.919c-2.833.038-5.668,0.043-8.5,0-2.215-.036-3.3-1.112-3.309-3.311q-0.041-10.258,0-20.517c0.009-2.172,1.15-3.3,3.329-3.309q10.257-.04,20.514,0c2.292,0.009,3.312,1.157,3.32,3.7,0.023,7.825.009,15.65,0.01,23.474,0,4.559.036,9.119-.024,13.678-0.016,1.21.205,1.734,1.585,1.7,4.126-.088,8.255-0.063,12.382.01,1.143,0.021,1.463-.308,1.444-1.447q-0.108-6.282-.015-12.568c0.019-1.2-.416-1.471-1.494-1.418-1.475.072-2.957,0.046-4.435,0.007-2.032-.052-3.336-1.217-3.338-2.918s1.286-2.906,3.325-2.967c2.952-.09,5.908-0.083,8.862-0.117,2.482,0.821,2.965,1.483,2.967,4.134q0.007,9.49,0,18.98c0,3.279-.891,4.179-4.113,4.19Q414.329,52.527,406.777,52.555ZM423.025,19.27c-2.323-.639-2.921-1.394-2.946-3.73-0.008-.674,0-1.349,0-2.024,0.027-3.593.028-3.592-3.655-3.559-0.858.008-1.719,0.045-2.575,0a2.968,2.968,0,0,1-3-2.866,2.93,2.93,0,0,1,3.032-3.018c2.941-.072,5.885-0.046,8.829-0.061,2.512,0.456,3.25,1.289,3.276,3.806,0.028,2.578.022,5.158,0.007,7.737C425.978,17.884,425.358,18.643,423.025,19.27ZM377.556,44.742c0-1.477-.056-2.957.015-4.431a2.936,2.936,0,1,1,5.871-.031c0.073,1.658.065,3.326-.014,4.984-0.049,1.031.25,1.419,1.327,1.36,1.6-.09,3.2-0.073,4.8-0.026a2.949,2.949,0,1,1,.038,5.887c-2.953.05-5.909,0.052-8.863-.013a2.958,2.958,0,0,1-3.157-3.112c-0.008-.122-0.006-0.246-0.006-0.369q0-2.123,0-4.248h-0.009Z"/>
</svg>
