<svg id="light" xmlns="http://www.w3.org/2000/svg" viewBox="0 0 512 426.7"><title>m_card</title><path d="M458.7,469.3H53.3A53.3,53.3,0,0,1,0,416V138.7A53.4,53.4,0,0,1,53.3,85.3h128A10.7,10.7,0,0,1,192,96c0,5.9-4.8,23.7-10.7,23.7H63.3a32,32,0,0,0-32,32V403a32.1,32.1,0,0,0,32,32H447.7a32.1,32.1,0,0,0,32-32V151.7a32,32,0,0,0-32-32h-117c-5.9,0-10.7-17.8-10.7-23.7a10.7,10.7,0,0,1,10.7-10.7h128A53.4,53.4,0,0,1,512,138.7V416A53.3,53.3,0,0,1,458.7,469.3Z" transform="translate(0 -42.7)"/><path d="M184.6,294.7A39.7,39.7,0,1,1,224.3,255,39.7,39.7,0,0,1,184.6,294.7Zm0-63.5A23.8,23.8,0,1,0,208.4,255,23.9,23.9,0,0,0,184.6,231.2Z" transform="translate(0 -42.7)"/><path d="M248.1,374a8,8,0,0,1-8-7.9V350.2a23.8,23.8,0,0,0-23.8-23.8H152.9a23.8,23.8,0,0,0-23.8,23.8v15.9a8,8,0,0,1-15.9,0V350.2a39.7,39.7,0,0,1,39.7-39.7h63.4A39.7,39.7,0,0,1,256,350.2v15.9A8,8,0,0,1,248.1,374Z" transform="translate(0 -42.7)"/><path d="M390.9,247.1H295.7a8,8,0,1,1,0-15.9h95.2a8,8,0,0,1,0,15.9Z" transform="translate(0 -42.7)"/><path d="M390.9,310.5H295.7a7.9,7.9,0,1,1,0-15.8h95.2a7.9,7.9,0,1,1,0,15.8Z" transform="translate(0 -42.7)"/><path d="M390.9,374H295.7a8,8,0,1,1,0-15.9h95.2a8,8,0,0,1,0,15.9Z" transform="translate(0 -42.7)"/><path d="M309.3,149.3H202.7a32,32,0,0,1-32-32V74.7a32,32,0,0,1,32-32H309.3a32,32,0,0,1,32,32v42.6A32,32,0,0,1,309.3,149.3ZM202.7,64A10.7,10.7,0,0,0,192,74.7v42.6A10.7,10.7,0,0,0,202.7,128H309.3A10.7,10.7,0,0,0,320,117.3V74.7A10.7,10.7,0,0,0,309.3,64Z" transform="translate(0 -42.7)"/></svg>