<svg id="Capa_1" data-name="Capa 1" xmlns="http://www.w3.org/2000/svg" viewBox="0 0 512 512"><title>scocial</title><circle cx="256.2" cy="255.1" r="180.5" style="fill:none;stroke:#000;stroke-miterlimit:10;stroke-width:15px"/><path d="M394.5,134.3a10.2,10.2,0,0,0,10.4,0l52.6-30.4a10.4,10.4,0,0,0,5.2-9,10.5,10.5,0,0,0-5.2-9L404.9,55.5a10.4,10.4,0,0,0-15.6,9.1v60.7a10.4,10.4,0,0,0,5.2,9Zm9.8-61.8,38.8,22.4-38.8,22.5Zm22.2,306.3h17.8a7.5,7.5,0,0,0,0-15H426.5a22.6,22.6,0,0,0-22.6,22.6v21.8H391.8a7.5,7.5,0,0,0,0,15h12.1v47.6a7.5,7.5,0,1,0,15,0V423.2H431a7.5,7.5,0,0,0,0-15H418.9V386.4A7.6,7.6,0,0,1,426.5,378.8ZM256,154A102.2,102.2,0,0,0,154,256c0,56.3,46.4,102,102,102s102-45.7,102-102A102.2,102.2,0,0,0,256,154Zm0,189a86.6,86.6,0,0,1-53.6-18.5,54.5,54.5,0,0,1,30-40.1,40,40,0,0,0,47.2,0,55,55,0,0,1,30,40.1A86.6,86.6,0,0,1,256,343Zm-25.1-91V239.5a25.1,25.1,0,0,1,50.2,0V252a25.1,25.1,0,0,1-50.2,0Zm91.2,60.5a70.4,70.4,0,0,0-32-39.5,39.6,39.6,0,0,0,6-21V239.5a40.1,40.1,0,0,0-80.2,0V252a39.6,39.6,0,0,0,6,21,72,72,0,0,0-12.8,9.3,69.2,69.2,0,0,0-19.2,30.2,87,87,0,1,1,132.2,0ZM185.6,438.7a195.7,195.7,0,0,0,140.8,0,93.9,93.9,0,0,0,162.1,41.5,7.5,7.5,0,0,0-11.3-9.9A78.9,78.9,0,1,1,497,418a77.7,77.7,0,0,1-4,24.9,7.5,7.5,0,1,0,14.2,4.7A92.3,92.3,0,0,0,512,418a94,94,0,0,0-73.3-91.6h0a195.7,195.7,0,0,0,0-140.8A93.9,93.9,0,1,0,326.4,73.3a193.6,193.6,0,0,0-70.4-13,197.7,197.7,0,0,0-79.6,16.8,88.6,88.6,0,1,0-99.3,99.3A197.7,197.7,0,0,0,60.3,256a193.6,193.6,0,0,0,13,70.4M418,15a79,79,0,1,1-78.9,79A79,79,0,0,1,418,15Zm5.4,309.2H418A94,94,0,0,0,324.1,418c0,1.8,0,3.6.1,5.4a181.5,181.5,0,0,1-136.4,0c.1-1.8.1-3.6.1-5.4A94,94,0,0,0,94,324.1H88.6A177.9,177.9,0,0,1,75.2,256a180.8,180.8,0,0,1,18.2-79,88.7,88.7,0,0,0,50.4-19.2,7.5,7.5,0,1,0-9.4-11.7,72.6,72.6,0,0,1-45.8,16,73.6,73.6,0,1,1,73.5-73.5,71.6,71.6,0,0,1-7.7,32.8,7.5,7.5,0,0,0,13.5,6.7A87.6,87.6,0,0,0,177,93.4a180.8,180.8,0,0,1,79-18.1,177.8,177.8,0,0,1,68.2,13.3c-.1,1.8-.1,3.6-.1,5.4A94,94,0,0,0,418,187.9h5.4a181.5,181.5,0,0,1,0,136.4ZM136.5,50.3a11.5,11.5,0,0,0-12.2-1.2,14.1,14.1,0,0,1-6.4,1.3,25.2,25.2,0,0,0-15.3-6.5,24.9,24.9,0,0,0-18.4,6.2,25.3,25.3,0,0,0-8.5,15.4A34.8,34.8,0,0,1,55.3,53.8a10.2,10.2,0,0,0-9.6-3.2,9.8,9.8,0,0,0-7.4,6.9c-2.4,8-7.3,32.4,12.9,49l-4.1.9a8.4,8.4,0,0,0-6.1,4.2c-2.2,3.8-1.1,8.2-.2,10.5,1.7,4.5,6.2,7.7,13.2,9.6a57.6,57.6,0,0,0,14.3,1.6c13,0,29.3-3.5,42.2-14.1s18.1-24.9,20.2-35.9a44.3,44.3,0,0,0,7.8-12.6,45.2,45.2,0,0,0,2.5-9.1,11.3,11.3,0,0,0-4.5-11.3ZM118.4,74.6a7.8,7.8,0,0,0-2.1,4c-1.4,8.7-5.2,20.7-15.3,29C89.1,117.4,73.2,119,63.2,118a47.8,47.8,0,0,0,8-4.4,7.6,7.6,0,0,0,3.2-6.9,7.4,7.4,0,0,0-4.4-6.2C59.8,96,53.9,89.5,51.8,80.7a30.4,30.4,0,0,1-.7-10.3A49.7,49.7,0,0,0,83.2,81a7.6,7.6,0,0,0,7.3-7.5v-4h0a10.3,10.3,0,0,1,11.1-10.5,9.8,9.8,0,0,1,7.1,3.5,7.2,7.2,0,0,0,4.2,2.4,27.6,27.6,0,0,0,11.8-.1h0A29.3,29.3,0,0,1,118.4,74.6Z"/></svg>