<svg id="light" xmlns="http://www.w3.org/2000/svg" viewBox="0 0 512 512"><title>v_card</title><path d="M457.7,447.3H52.3A53.3,53.3,0,0,1-1,394V116.7A53.4,53.4,0,0,1,52.3,63.3h128A10.7,10.7,0,0,1,191,74c0,5.9-4.8,23.7-10.7,23.7H62.3a32,32,0,0,0-32,32V381a32.1,32.1,0,0,0,32,32H446.7a32.1,32.1,0,0,0,32-32V129.7a32,32,0,0,0-32-32h-117C323.8,97.7,319,79.9,319,74a10.7,10.7,0,0,1,10.7-10.7h128A53.4,53.4,0,0,1,511,116.7V394A53.3,53.3,0,0,1,457.7,447.3Z"/><path d="M183.6,272.7A39.7,39.7,0,1,1,223.3,233,39.7,39.7,0,0,1,183.6,272.7Zm0-63.5A23.8,23.8,0,1,0,207.4,233,23.9,23.9,0,0,0,183.6,209.2Z"/><path d="M247.1,352a8,8,0,0,1-8-7.9V328.2a23.8,23.8,0,0,0-23.8-23.8H151.9a23.8,23.8,0,0,0-23.8,23.8v15.9a8,8,0,0,1-15.9,0V328.2a39.7,39.7,0,0,1,39.7-39.7h63.4A39.7,39.7,0,0,1,255,328.2v15.9A8,8,0,0,1,247.1,352Z"/><path d="M389.9,225.1H294.7a8,8,0,1,1,0-15.9h95.2a8,8,0,0,1,0,15.9Z"/><path d="M389.9,288.5H294.7a7.9,7.9,0,1,1,0-15.8h95.2a7.9,7.9,0,1,1,0,15.8Z"/><path d="M389.9,352H294.7a8,8,0,1,1,0-15.9h95.2a8,8,0,0,1,0,15.9Z"/></svg>